<svg data-name="Группа 4" xmlns="http://www.w3.org/2000/svg" width="136.312" height="136.47"><circle data-name="Эллипс 1" cx="68.156" cy="68.235" r="68.156" style="fill:#124"/><path data-name="Фигура 5" d="M717.158 5010.98a68.264 68.264 0 0 1-20.448-133.36c6.894-2.17-23.192 1.7-24.6 38.12-.516 13.37 2.982 20.06 14.225 15.72 7.061-2.72 7.976-19.41 32.3-16.02 4.333-12.17-31.205-7.31-22.522-27.6-4.266 9.97 22.826.41 34.672 19.88 1.16-.22 3.259 9.61 3.852 10.69s10.116-3.39 11.262 4.15c3.79 19.89 21.38 22.38 22.818 32.94 3.806 5.12-.889 10.68-.889 10.68s-2.131 5.71-11.261 9.79c-29.95 1.89-27.3-10.7-39.414-5.64-11.66 4.88-22.067 11.84-24.28 19.51-4.913 17.04 24.436 21.22 24.285 21.14Zm24.6-72.1c-5.79.94-4.788.93-9.779-.3-3.338-.82-.865-4.81 4.444-5.34 6.024-.6 8.777 5.08 5.332 5.64Z" transform="translate(-649 -4874.5)" style="fill:#204da6;fill-rule:evenodd"/></svg>