<svg data-name="Группа 11" xmlns="http://www.w3.org/2000/svg" width="136.313" height="136.5"><circle data-name="Эллипс 1 копия 7" cx="68.157" cy="68.25" r="68.156" style="fill:#124"/><path data-name="Эллипс 2" d="M876.141 5290.1c1.395-8.72 17.229-4.97 10.981-10.89a19.634 19.634 0 0 0-7.6-3.45c-8.267-1.47-9.482-13.82 15.092-3.4 6.745 2.86 23.253-9.67 23.253-9.67s-9.472 3.24-13.613 3.5c-5.957.38-11.336-2.22-10.169-4.1 7.522-12.17 29.932-1.53 29.932-1.53s-11.642-26.58-34.733-9.69c1.946-1.43-15.665 14.85-19.177 10.85s1.431-6.3 2.233-9.84c1.033-4.56-11.935-31.53-11.935-31.53a16.484 16.484 0 0 0-3.487 9.92c-.236 6.34 4.257 14.38 4.67 18.18 1.829 16.83-7.971 12.42-10.493 3.07.1.38-3.343-20.16-3.343-20.16s-2.957 3.54-3.28 6.96.069 12.73-6.878 6.6c-11.56-10.19-.753-17.3-2.182-17.34a7.042 7.042 0 0 0 5.072-1.68c2.6-2.35 2.849-6.66 1.071-11.15 2.627.93 5.08.79 6.662-.64 1.924-1.74 2.086-4.96.745-8.37a7.448 7.448 0 0 0 7.609-1.19 6.929 6.929 0 0 0 2.208-4.89c2.6 1.28 5.389 1.22 7.188-.4a5.533 5.533 0 0 0 1.685-4.32c3.07 2.47 6.971 2.88 9.3.78a5.15 5.15 0 0 0 1.1-1.45c3.015 3.28 7.374 4.18 9.783 2a4.414 4.414 0 0 0 1.077-1.49 7.528 7.528 0 0 0 4.891 2.29c.038 3.11 2.016 7.59 6.531 11.29 6.551 5.36 6.186 16.59 6.186 16.59a31.534 31.534 0 0 0 7.626-9.69c1.39-2.85 3.222-10.6-2.1-16.49a18.952 18.952 0 0 0-13.684-5.85 7.669 7.669 0 0 0-2.107-5.46c-2.523-2.8-6.292-3.51-8.417-1.59a4.184 4.184 0 0 0-.69.82c-.123-.15-.245-.3-.378-.45-3.016-3.34-7.431-4.28-9.861-2.08a4.529 4.529 0 0 0-.773.92c-.037-.04-.069-.08-.106-.12-3.181-3.53-7.926-4.43-10.6-2.01a5.7 5.7 0 0 0-1.755 4.44c-3.065-2.51-6.946-2.97-9.231-.91a5.3 5.3 0 0 0-1.66 3.49c-3.028-1.51-6.452-1.35-8.729.71a7.254 7.254 0 0 0-2.146 6.42c-3.753-2.52-7.741-3.08-9.982-1.05-1.608 1.46-1.984 3.94-1.282 6.71-3.319-1.69-2.451-17.58 7.929-23.68a68.237 68.237 0 0 0 68.231 118.19c-2.139 1.22-32.651 5.25-30.664-7.17Z" transform="translate(-804.875 -5169.72)" style="fill:#204da6;fill-rule:evenodd"/></svg>