<svg data-name="Группа 12" xmlns="http://www.w3.org/2000/svg" width="136.312" height="136.5"><circle data-name="Эллипс 1 копия 8" cx="68.156" cy="68.25" r="68.156" style="fill:#124"/><path data-name="Фигура 11" d="M1056.09 5291.62c3.3 3.1 12.2 10.57 19.57 7.73s6.32-4.07 6.32-4.07-8.97-.28-11.49-4.72-2.2-12.18-2.2-12.18a56.909 56.909 0 0 1 19.42-3.4c10.19.2 18.17-2.94 22.08-7.98 6.34-8.19 2.32-34.79-2.29-26.64-4.54 8.02-8.32 14.53-10.25 17.5-6.36 9.78-16.6 4.5-10.02-4.66 1.84-2.56 11.66-4.41 11.15-7.02s-15.18-4.19-18.91 2.37-5.59 15.49-8.05 17.38a8.511 8.511 0 0 1-4.93 1.83 96.466 96.466 0 0 0-8.28-17.3 29.287 29.287 0 0 0-8.83-8.3 97.206 97.206 0 0 0-16.68-7.93 8.493 8.493 0 0 1 1.82-4.94c1.89-2.46 10.82-4.34 17.39-8.07s4.97-18.44 2.36-18.96-4.46 9.33-7.02 11.17c-9.16 6.6-14.45-3.67-4.66-10.04 2.97-1.94 9.48-5.73 17.5-10.28 8.15-4.62-18.46-8.67-26.65-2.31-5.05 3.92-8.18 11.92-7.98 22.14a57.4 57.4 0 0 1-3.39 19.49s-7.74.31-12.19-2.22-4.73-11.53-4.73-11.53-1.23-1.05-4.07 6.34 4.64 16.32 7.74 19.63c17.8 18.99-17.445 5.41-17.761-2.54a68.218 68.218 0 0 0 65.911 65.49c-8.2-.27-17.32-31.44-.88-15.98Z" transform="translate(-990.688 -5171.5)" style="fill:#204da6;fill-rule:evenodd"/></svg>