<svg data-name="Группа 7" xmlns="http://www.w3.org/2000/svg" width="136.313" height="136.5"><path data-name="Эллипс 1 копия 4" d="M718.945 5020.19a68.245 68.245 0 1 1-68.158 68.25 68.2 68.2 0 0 1 68.158-68.25Z" transform="translate(-650.781 -5020.19)" style="fill-rule:evenodd;fill:#124"/><path data-name="Фигура 8" d="M688.117 5027.9a68.5 68.5 0 0 0-37.334 60.53c0 10.91 1.471 20.17 13.626 40.94-8.346-14.26-6.92-47.23 4.149-47.77 3.837-.18 4.149 5.34 4.149 5.34s2.836 11.49 8.89 15.43c8.559 5.58 17.627 2.98 25.485 0s13.146-2.35 16.6-1.48 4.672 5.86 5.334 7.12c2.02 3.85.449 6.53 4.445 4.45 4.9-2.55 3.082 16.99 2.963 19.88-.06 1.48-.752 17.09.593 12.17 2.695-9.87 11.849-21.98 6.816-32.94-1.732-3.77-4.741-11.87-4.741-11.87s11.527-29.55 11.557-30.56.109-1.37-.889-2.08c-.446-.31-11.08 2.18-12.15.89-.546-.65 2.366-.88 4.741-2.96s4.1-7.74 3.557-11.58-2.179-8.47-8.891-9.19c-5.785-.63-15.665 4.76-16.3 4.74s-.9-2.63-3.853-5.34c-4.766-4.37-7-4.45-13.336-4.45a30.444 30.444 0 0 0-13.039 3.27c-24.172 10.48-.612-15.43-2.372-14.54Zm35.265 24.92c-1.541 1.7 4.917 6.02 7.112 8.31 3.543 3.7 14.3 2.13 11.853-7.42-1.179-4.6-6.192-6.26-10.964-5.34-4.803.92-6.461 2.75-8.001 4.45Z" transform="translate(-650.781 -5020.19)" style="fill:#204da6;fill-rule:evenodd"/></svg>