<svg data-name="Группа 10" xmlns="http://www.w3.org/2000/svg" width="136.313" height="136.5"><circle data-name="Эллипс 1 копия 6" cx="68.157" cy="68.25" r="68.157" style="fill:#124"/><path data-name="Фигура 10" d="M662.576 5215.83s2.419 10.54 20.4 20.33c23.436 12.76 43.072-7.56 43.072-7.56l1.68 6.16a27.244 27.244 0 0 0 6.6-8.07c1.9-3.7.981-9.7.981-9.7s11.583-31.42-2.67-34.57c-8.346-1.85-21.947 20.27-21.947 20.27s-2.91 1.68-7.71 4.39-7.5 9.08-7.5 9.08l8.909-1.61s-4.4 11.01-11.791 14.51a8.2 8.2 0 0 1-9.513-1.37c-9.87-8.79-7.182-33.23-.03-47.75a68.3 68.3 0 0 0 18.055 123.92c5.681 1.54-21.029-16.84-14.6-14.38 15.671 6 31.533.42 31.533.42l-1.481 7.42a32.247 32.247 0 0 0 11.26-5.05c3.967-2.91 6.171-9.75 6.171-9.75s28.885-27.12 15.463-38.02c-7.86-6.38-33.963 9.82-33.963 9.82s-3.972.24-10.489.57-12.742 5.63-12.742 5.63l10.286 3.02s-10.48 9.32-20.16 9.11a9.706 9.706 0 0 1-9.349-6.5c-1.889-4.73 4.895-26.63 4.72-26.39-5.053 6.81-20.17 2.96-20.17 2.96Z" transform="translate(-650.781 -5169.72)" style="fill:#204da6;fill-rule:evenodd"/></svg>