<svg data-name="Группа 6" xmlns="http://www.w3.org/2000/svg" width="136.308" height="136.5"><circle data-name="Эллипс 1 копия 3" cx="68.154" cy="68.25" r="68.154" style="fill:#124"/><path data-name="Фигура 7" d="M1056.48 5018.71a68.273 68.273 0 0 1-23.32-132.4c-9.81 6.09-14.31 10.84-15.21 12.51-2.49 4.62 1.32 10.97 8.29 11.58 3.78.32 3.15-2.22 6.23-3.86 4.35-2.33 10.78-1.64 13.63.29 2.17 1.47 5.23-2.55 14.82.6 14.85 4.88 32.3 5.64 32.3 5.64s-14.15 4.41-21.64 3.85-15.76-1.63-16.59 1.19c.45-1.53 28.94 12.63 26.37 37.09-.73 6.97-8.16 19.51-5.33 25.81s5.58 10.13 4.74 13.06-8.33 8.86-13.04 9.79-7.46 1.59-11.85-.89c-2.6-1.47-16.66-20.68-26.97-13.05-15.1 11.17 12.59 22.6 27.57 28.79Zm-1.79-71.23c-1.52 6.45-1.3 7 5.04 10.09 1.9.93 1.59-2.48 0-6.23-1.74-4.09-4.41-6.5-5.04-3.86Z" transform="translate(-988.312 -4882.22)" style="fill:#204da6;fill-rule:evenodd"/></svg>