<svg data-name="Группа 9" xmlns="http://www.w3.org/2000/svg" width="136.312" height="136.47"><path data-name="Эллипс 1 копия 2" d="M1058.84 5033.24a68.245 68.245 0 1 1-68.158 68.24 68.2 68.2 0 0 1 68.158-68.24Z" transform="translate(-990.688 -5033.25)" style="fill-rule:evenodd;fill:#124"/><path data-name="Фигура 6" d="M1097.6 5149.49c-.25-7.31-6.89-17.13-9.84-15.87-.57.24-13.44 1.58-16.42.58a4.556 4.556 0 0 1-3.2-5.39 4.862 4.862 0 0 0-.31-4.19c-.79-1.22-2.48-1.34-2.02-2.38s3.12-1.92 3.12-1.92a8.2 8.2 0 0 1-2.89-1.73c-1.2-1.19-1.63-1-.64-2.47s.88-4.41.88-4.41l-4.06-4.2s-1.07-1.28 2.05-3 5.51-6.85 6.16-9.54-.84-5.25-1.69-7.32c-1.17-2.83 3.27-12.53 5.1-14.92 1.15-1.49.13-2.79.78-4.51.97-2.56 3.65-6.84 7.59-6.93 10.36-.25 17.64.28 24.41 1.64 11.1 2.23-18.78-24.8-7.5-16.51a68.159 68.159 0 1 1-78.47-1.47c10.9-7.4-17.98 12.02-5.08 12.02 7.17 0 13.09-.37 23.12 1.79 3.86.82 5.88 4.73 6.49 7.4.41 1.79-.19 3.36.75 5.01 1.48 2.62 4.55 12.84 3 15.48-1.14 1.93-2.96 4.25-2.69 7.01s1.93 8.16 4.79 10.31 1.62 3.25 1.62 3.25l-4.61 3.61s-.53 2.89.26 4.48.38 1.35-.97 2.36a8.182 8.182 0 0 1-3.11 1.32s2.52 1.25 2.83 2.33-1.38.98-2.34 2.07a4.871 4.871 0 0 0-.89 4.11 4.541 4.541 0 0 1-3.91 4.9c-3.11.58-15.69-2.53-16.22-2.85-2.76-1.66-10.71 7.16-11.97 14.36-.25 1.45 26.59 12.47 40.01 12.47s45.92-5.42 45.87-6.89Zm-66.44-55.71s4.52-.7 6.23-1.11 2.19-1.57 3.57-.71-.12.48.24 2.2.18 2.63-2.11 2.75-7.93-3.13-7.93-3.13Zm54.15 3.38s-4.37-1.31-6-1.95-1.95-1.86-3.43-1.2.05.5-.54 2.15-.55 2.58 1.7 3.01 8.27-2.01 8.27-2.01Z" transform="translate(-990.688 -5033.25)" style="fill:#204da6;fill-rule:evenodd"/></svg>