<svg data-name="Группа 5" xmlns="http://www.w3.org/2000/svg" width="136.313" height="136.47"><path data-name="Эллипс 1 копия 2" d="M885.777 4875.68a68.245 68.245 0 1 1-68.158 68.24 68.2 68.2 0 0 1 68.158-68.24Z" transform="translate(-817.625 -4875.69)" style="fill-rule:evenodd;fill:#124"/><path data-name="Фигура 6" d="M851.994 4997.04c.988-1.35 12.535 8.91 23.708 7.12-2.8.45-14.364-10.94-12.151-9.5s17.559 7.1 22.819 3.86c-10.831-1.35-20.223-10.15-21.337-11.57-4.894-6.25-2.853-16.39-.3-13.35.49.58 13.932 9.23 17.78 9.79a5.61 5.61 0 0 0 6.52-4.16c.426-2.05 1.115-3.55 2.667-4.45s3.488-.08 3.556-1.48-2.371-3.86-2.371-3.86a10.116 10.116 0 0 0 4.149-.29c1.986-.65 2.355-.2 2.075-2.38s1.481-5.34 1.481-5.34l6.816-2.37s1.885-.81-.592-4.45-2.266-10.61-1.482-13.95 3.832-5.31 5.926-7.12 1.591-1.93 2.667-9.2.237-8.84 0-10.09c-.435-2.29 2.725-2.48 2.964-4.74.355-3.36.485-7.93-2.371-11.87-2.616-3.62-8.546-9.35-21.04-10.98-4.844-.64-3.556-3.41 0-4.45 7.374-2.16 13.4-3.31 16.935-1.94a68.254 68.254 0 0 0-58.546 122.87c5.055 2.91 18.039 7.92 25.9 8.44-14.535-5.38-27.056-12.79-25.773-14.54Zm34.672-62.61s5.553.99 7.7 1.19 3.181-.97 4.445.59-.332.52-.593 2.67-.838 3.15-3.556 2.37-7.996-6.82-7.996-6.82Z" transform="translate(-817.625 -4875.69)" style="fill:#204da6;fill-rule:evenodd"/></svg>