<svg data-name="Группа 2" xmlns="http://www.w3.org/2000/svg" width="136.344" height="136.5"><circle data-name="Эллипс 1" cx="68.172" cy="68.25" r="68.172" style="fill:#124"/><path data-name="Фигура 3" d="M860.191 4719.69a67.707 67.707 0 0 0 9.432 123.25c7.1 2.54-.728-3.47-.728-3.47s-1.589-4.69.3-5.93 8.231-4.74 13.632-5.35 7.015 3.83 11.261 5.64 8.629.95 15.113-.89 3.632-3.22 5.038-9.2 4.134-5.85 4.14-7.7a2.53 2.53 0 0 0-1.769-2.38l2.074-8.31s-.792-.03-4.445 2.67-5.134 1.25-6.816.59c-2.469-.97-10.224-5.13-11.261-7.12s-.343-3.54 5.038-6.23 12.093-2.37 17.188-.89 4.149 1.19 4.149 1.19l-1.482 8.3a6.51 6.51 0 0 1 5.63-1.78c3.736.45 3.162.48 11.558-5.93s2.18-5.1 3.556-6.83 5.981 1.27 4.741-8.3-14.363-18.22-18.076-22.85-1.774-6.42-5.927-13.35-17.671-10.37-17.781-12.17c-1.558-3.7.291-7.08-10.372-12.16s-27.263-2.38-27.263-2.38-7.028 1.98-6.93 1.58Zm54.627 37.89c-.03-1.06-1-4.83-2.963-6.23-1.3-.92-6.166-3.43-7.705-2.07-.545.48-.434 3.43.593 5.34a5.72 5.72 0 0 0 4.445 3.26c1.512.07 5.662.78 5.63-.3Z" transform="translate(-824.125 -4711)" style="fill:#204da6;fill-rule:evenodd"/></svg>