<svg data-name="Группа 3" xmlns="http://www.w3.org/2000/svg" width="136.308" height="136.5"><circle data-name="Эллипс 1 копия" cx="68.154" cy="68.25" r="68.154" style="fill:#124"/><path data-name="Фигура 4" d="M1007.28 4765.6c9.09 25.2 53.27 18.54 38.52-14.25.64 17.97-22.76 13.92-16.59-2.67 2.95-7.93 33.71-24.46 56.6 1.78 4.41 5.06 13.87 26.17 5.04 48.37-1.84 4.62-4.8 3.46-5.34 3.86s.07-2.77-.29 6.82c-.48 12.59-13.46 29.45-10.38 25.82-1.59 1.87-3.85 0-3.85 0a9.372 9.372 0 0 1-1.48 1.78c-1.25 1.29-14.51 3.78-18.97 1.48-9.15-4.73-2.8-13.68-10.67-13.95-2.28-.07-5.01-.13-6.22 7.42-2.37 14.76 25.22 20.17 32.01 19.29s-6.84 1.19-8.6 1.19a68.206 68.206 0 0 1-68.156-68.25c0-25.32 11.256-45.78 31.706-57.56-19.49 18.27-16.04 31.37-13.33 38.87Zm76.45 30.26c-3.19 3.84-3.31-10.84-1.77-13.35s3.32 1.81 3.85 5.04a10.683 10.683 0 0 1-2.08 8.31Z" transform="translate(-988.312 -4716.03)" style="fill:#204da6;fill-rule:evenodd"/></svg>