<svg data-name="Группа 1" xmlns="http://www.w3.org/2000/svg" width="136.344" height="136.5"><circle data-name="Эллипс 1" cx="68.172" cy="68.25" r="68.172" style="fill:#124"/><path data-name="Фигура 1" d="M756.8 4725.36a68.228 68.228 0 1 1-78.906 110.11c-.11-.07 6.734 3.02 6.734 3.02s4.853.88 6.9-.3 6.339-4.15 5.4-23.11c-.893-18.09-3.913-37.56 2.057-47.53-.021 0-31.473-16.4-31.473-16.4l25.514 3.6s-3.949.67-5.1 1.8.9 2.1.9 2.1 11.893 6.5 11.883 6.52c7.132-8.66 16.586-11.25 27.438-15.22 11.252-4.12 27.16-8.74 30.016-14.11 2.388-4.49 1.2-7.8 1.2-7.8s.443-.52-2.563-2.68Zm13.971 81.01c-9.5 5.09-53.129 28.51-53.129 28.51s-12.016 5.83-13.207 6.6-4.431 1.36-2.7-1.2 1.643-7.33.6-10.8c-4.594-15.28-1-39.99 7.772-55.18.302-.53 61.844 31.43 60.663 32.07Zm2.1-3.3c-.648-10.9-2.7-48.33-2.7-48.33s-.678-8.8-.9-11.4-.077-5.4-2.1-4.5-.5 2.73-12.306 5.4c-15 3.39-32.66 12.6-42.456 26.46-.478.68 60.576 34.28 60.462 32.37Z" transform="translate(-655.812 -4716.94)" style="fill:#204da6;fill-rule:evenodd"/></svg>