<svg data-name="Группа 8" xmlns="http://www.w3.org/2000/svg" width="136.312" height="136.5"><circle data-name="Эллипс 1 копия 5" cx="68.156" cy="68.25" r="68.156" style="fill:#124"/><path data-name="Фигура 9" d="M929.455 5131.94a68.11 68.11 0 0 1-105.855-1.63c8.455 10.76 18.977 15.25 33.432 7.08 5.213-2.95 9.035-6.57 10.965-9.5s2.963-10.57 2.963-21.66v-29.08a9.127 9.127 0 0 0-2.963-6.23c-2.069-1.91-2.459-2.67-5.631-2.67s-4.308 1.21-8 2.67-7.581 3.54-10.372 4.45-1.828 3.24-.889 5.34 3.6 9.96 4.741 13.35 5.545 15.62 6.816 16.62 1.731 1.59 1.186 3.56-3.672 13.65-16.892 13.65-15.41-13.66-15.41-15.73 1.605-.68 2.371-2.37 6.519-16.32 6.519-16.32 4.5-12.29 4.742-13.05 1.18-3.86-1.185-4.16a4.233 4.233 0 0 1-3.557-3.86c.139-1.07 3.347-1.11 4.742-1.78s13.249-6.51 16-8.01c27.469-14.96 57.138 4.44 48.8-.1 2.755 1.5 14.615 7.35 16.011 8.01s4.6.71 4.744 1.79a4.232 4.232 0 0 1-3.558 3.85c-2.367.3-1.423 3.4-1.186 4.16s4.744 13.06 4.744 13.06 5.756 14.63 6.523 16.32 2.372.31 2.372 2.37-2.191 15.73-15.418 15.73-16.355-11.68-16.9-13.65-.085-2.56 1.187-3.56 5.675-13.22 6.819-16.62 3.8-11.25 4.744-13.35 1.9-4.43-.89-5.35-6.682-2.98-10.377-4.45-4.832-2.67-8.006-2.67-3.564.77-5.633 2.67a9.122 9.122 0 0 0-2.965 6.23v29.09c0 11.09 1.034 18.73 2.965 21.66s5.754 6.55 10.97 9.5c15.446 8.73 24.71 2.56 31.331-5.36Zm-14.043-46.48-10.373 25.22h19.855Zm-74.975 0-10.372 25.22h19.854Z" transform="translate(-809.344 -5020.19)" style="fill:#204da6;fill-rule:evenodd"/></svg>