<svg id="Группа_1" data-name="Группа 1" xmlns="http://www.w3.org/2000/svg" width="48.97" height="57.5"><defs><style>.cls-1{fill:none;stroke:#1f92eb;stroke-width:1px;fill-rule:evenodd}</style></defs><path id="Прямоугольник_скругл._углы_1" data-name="Прямоугольник, скругл. углы 1" class="cls-1" d="M2375.5 2775.14v-28.33a5.975 5.975 0 0 1 5.99-5.96h14.97a5.975 5.975 0 0 1 5.99 5.96" transform="translate(-2375 -2718)"/><circle id="Эллипс_1" data-name="Эллипс 1" cx="14.735" cy="8.69" r="8.235" style="fill:none;stroke:#1f92eb;stroke-width:1px"/><path id="Прямоугольник_скругл._углы_1_копия_2" data-name="Прямоугольник, скругл. углы 1 копия 2" class="cls-1" d="M2381.55 2775.14v-13.53a3.1 3.1 0 0 1 3.3-2.85h8.24" transform="translate(-2375 -2718)"/><path id="Эллипс_1_копия_2" data-name="Эллипс 1 копия 2" class="cls-1" d="M2388.97 2748.07a3.215 3.215 0 1 1-3.18 3.22 3.2 3.2 0 0 1 3.18-3.22Z" transform="translate(-2375 -2718)"/><path id="Прямоугольник_скругл._углы_1_копия" data-name="Прямоугольник, скругл. углы 1 копия" class="cls-1" d="M2403.57 2743.49h14.22a5.591 5.591 0 0 1 5.69 5.5v26.15" transform="translate(-2375 -2718)"/><path id="Эллипс_1_копия" data-name="Эллипс 1 копия" class="cls-1" d="M2411.38 2722.87a7.549 7.549 0 1 1-7.81 7.55 7.688 7.688 0 0 1 7.81-7.55Z" transform="translate(-2375 -2718)"/><path id="Фигура_1" data-name="Фигура 1" class="cls-1" d="M2407.68 2756.46c-3.09-7.02-11.89-5.38-11.95 2.77-.03 4.48 4.19 6.15 7 7.94 2.73 1.74 4.67 4.12 4.97 5.13.26-.99 2.42-3.44 4.94-5.18 2.76-1.9 7.04-3.46 7-7.94-.05-8.17-9-9.46-11.96-2.72Z" transform="translate(-2375 -2718)"/></svg>