<svg id="Группа_3" data-name="Группа 3" xmlns="http://www.w3.org/2000/svg" width="70.82" height="59.82"><defs><style>.cls-1,.cls-2{fill:none;stroke:#1f92eb;stroke-width:1px}.cls-1{fill-rule:evenodd}</style></defs><path id="Прямоугольник_скругл._углы_2" data-name="Прямоугольник, скругл. углы 2" class="cls-1" d="M2969.43 2747.95h61.96a2 2 0 0 1 2 2v5.62a1.991 1.991 0 0 1-2 1.99h-61.96a2 2 0 0 1-2-1.99v-5.62a2.006 2.006 0 0 1 2-2Z" transform="translate(-2963.09 -2718.09)"/><circle id="Эллипс_4" data-name="Эллипс 4" class="cls-2" cx="37.315" cy="51.505" r="7.845"/><circle id="Эллипс_4-2" data-name="Эллипс 4" class="cls-2" cx="8.345" cy="16.22" r="7.845"/><path id="Эллипс_4-3" data-name="Эллипс 4" class="cls-1" d="M3027.96 2718.6a3.705 3.705 0 1 1-3.72 3.71 3.717 3.717 0 0 1 3.72-3.71Z" transform="translate(-2963.09 -2718.09)"/><circle id="Эллипс_4-4" data-name="Эллипс 4" class="cls-2" cx="63.86" cy="18.645" r="5.33"/></svg>