<svg id="Группа_2" data-name="Группа 2" xmlns="http://www.w3.org/2000/svg" width="62" height="58.38"><defs><style>.cls-1,.cls-2{fill:none;stroke:#1f92eb;stroke-width:1px}.cls-1{fill-rule:evenodd}</style></defs><path id="Прямоугольник_1" data-name="Прямоугольник 1" class="cls-1" d="M2664.08 2760.85v-15.79c0-5.18-3.23-6.82-3.23-6.82s5.77-9.68 8.07-9.68c2.54 0 8.08 9.68 8.08 9.68s-3.23 1.46-3.23 6.42v21.04" transform="translate(-2635.5 -2718.12)"/><path id="Прямоугольник_1-2" data-name="Прямоугольник 1" class="cls-1" d="M2673.77 2775.38a7.438 7.438 0 0 1 6.46-3.23c6.56.5 12.92.9 12.92-6.45 0-4.97 4.85-6.46 4.85-6.46s-5.54-9.69-8.08-9.69c-2.3 0-8.07 9.69-8.07 9.69a4.025 4.025 0 0 1 2.79 3.78c0 3.28-10.87 2.68-10.87 2.68" transform="translate(-2635.5 -2718.12)"/><path id="Прямоугольник_1-3" data-name="Прямоугольник 1" class="cls-1" d="M2664.08 2760.85s-16.16 7.25-16.16-4.89c0-4.96 3.23-6.41 3.23-6.41s-5.54-9.69-8.07-9.69c-2.3 0-8.08 9.69-8.08 9.69s3.23 1.64 3.23 6.81c0 12.79 14.76 14.25 21.24 14.28 1.82.01 4.61 6.36 4.61 6.36" transform="translate(-2635.5 -2718.12)"/><circle id="Эллипс_2" data-name="Эллипс 2" class="cls-2" cx="34.235" cy="3.175" r="2.675"/><circle id="Эллипс_2-2" data-name="Эллипс 2" class="cls-2" cx="54.42" cy="24.975" r="3.14"/><circle id="Эллипс_2-3" data-name="Эллипс 2" class="cls-2" cx="7.565" cy="13.665" r="4.595"/></svg>