<svg xmlns="http://www.w3.org/2000/svg" width="51" height="61"><path data-name="Прямоугольник 1" d="M3525 5234h40v-41.98c-1.45-.86-14.62-17.78-14.79-18.02H3525v30h-10v20h10v10Zm-1-18.47a4.614 4.614 0 0 0 3.07-.93 3.234 3.234 0 0 0 1.1-2.6 3.332 3.332 0 0 0-1.12-2.63 4.427 4.427 0 0 0-3.03-1h-4.35v11.38h1.98v-4.22h2.35Zm-2.35-5.56h2.42a2.187 2.187 0 0 1 1.55.56 1.96 1.96 0 0 1 .56 1.48 1.818 1.818 0 0 1-.55 1.43 2.351 2.351 0 0 1-1.61.5h-2.37v-3.97Zm11.52 9.78a5.571 5.571 0 0 0 2.73-.66 4.616 4.616 0 0 0 1.84-1.9 6.1 6.1 0 0 0 .64-2.84v-.57a6.05 6.05 0 0 0-.64-2.83 4.549 4.549 0 0 0-1.81-1.9 5.259 5.259 0 0 0-2.68-.68h-3.35v11.38h3.27Zm.08-9.78a2.83 2.83 0 0 1 2.34.98 4.309 4.309 0 0 1 .81 2.82v.64a4.318 4.318 0 0 1-.85 2.79 2.971 2.971 0 0 1-2.39.97h-1.29v-8.2h1.38Zm13.65 3.38h-4.58v-3.38h5.25v-1.6h-7.22v11.38h1.97v-4.82h4.58v-1.58Z" transform="translate(-3514.5 -5173.5)" style="fill:#17346f;stroke:#124;stroke-width:1px;fill-rule:evenodd"/></svg>