<svg xmlns="http://www.w3.org/2000/svg" width="24.72" height="24.69"><path d="M3198.45 2125.77s4.12 2 6.55 2a11.77 11.77 0 1 0-11.77-11.77c0 2.49 2.1 6.7 2.1 6.7l-1.65 4.62Zm5.27-12.83c-.04-.2-1.66-2.46-1.75-2.57s-2.41.7-2.59 2.08 1.03 3.62 2.35 5.24 4.42 3.82 6.05 3.95 3.17-2.04 3.33-2.32-2.5-2-2.8-2.07-1.3.96-1.55 1.05-1.22-.25-2.47-1.36a4.648 4.648 0 0 1-1.59-2.68c.02-.26 1.07-1.11 1.02-1.32Z" transform="translate(-3192.56 -2103.72)" style="fill:none;stroke:#eef;stroke-width:1px;fill-rule:evenodd"/></svg>