<svg id="logo" xmlns="http://www.w3.org/2000/svg" width="122" height="80"><defs><style>.cls-1{fill:#eef;fill-rule:evenodd}</style></defs><path id="Фигура_1" data-name="Фигура 1" class="cls-1" d="M2368 2157.96s14.66-5.64 29.84-5.64 22.3 2.4 31.21 5.64v-4.81s-15.13-7.01-26.75-7.01-22.88 3.74-34.3 11.82Zm122 .04s-14.63-5.66-29.79-5.66-22.25 2.41-31.16 5.66v-4.82s15.11-7.04 26.71-7.04 22.84 3.76 34.24 11.86Z" transform="translate(-2368 -2078)"/><path id="Фигура_1-2" data-name="Фигура 1" class="cls-1" d="M2398.25 2126.96h3.81c4.93.77 6 1.42 11.18 5.3s15.31 18.37 15.31 18.37-13.86-5.75-25.49-5.75-22.87 3.74-34.3 11.82l11.19-48.16s7.68-2.58 11.18-3.29a72.016 72.016 0 0 1 9.91-.75s-2.84 22.44-2.79 22.46Z" transform="translate(-2368 -2078)"/><path id="Фигура_1_копия" data-name="Фигура 1 копия" class="cls-1" d="m2478.32 2108.54 11.17 48.2c-11.41-8.08-22.65-11.83-34.26-11.83s-25.47 5.75-25.47 5.75v-41.62c.32-.3 6.86-5.05 22.88-5.05s23.91 4.07 25.68 4.55Z" transform="translate(-2368 -2078)"/><path id="Фигура_1-3" data-name="Фигура 1" class="cls-1" d="M2428.75 2148.91s-10.32-14.04-15.51-17.91-6.25-4.28-11.18-5.05h-2.8c0-.15 4.58-38.11 4.58-38.11a32.346 32.346 0 0 0 3.56-.25c5.59.59 7.81 3.03 10.92 6.06 4.81 4.66 10.27 16.41 10.39 16.45Z" transform="translate(-2368 -2078)"/><path id="Эллипс_2" data-name="Эллипс 2" class="cls-1" d="M2451.89 2078a10.346 10.346 0 1 1-10.48 10.35 10.412 10.412 0 0 1 10.48-10.35Zm-.72 6.62c5.69-1.5 17.18-4.24 17.48-3.14s-10.71 8.4-16.39 9.9-17.87 4.24-18.17 3.14 11.4-8.39 17.08-9.9Zm-8.71 9.93a84.616 84.616 0 0 0 10.48-2.41 47.285 47.285 0 0 0 9.43-4.48v-1.04a48.636 48.636 0 0 1-9.43 4.49c-4.1 1.2-10.83 2.75-10.83 2.75Zm-2.55-2.56a80.183 80.183 0 0 0 12.33-2.61 48.963 48.963 0 0 0 10.13-5.17.974.974 0 0 0 0-1.04 1.734 1.734 0 0 0-1.4-.34c-.11.09.79.72.36 1.01a40.808 40.808 0 0 1-9.09 4.51c-3.02.89-8.06 1.97-10.52 2.47-.45.1-.39-.56-.31-.75.17-.44-1.03 1.04-1.05 1.04Z" transform="translate(-2368 -2078)"/><circle id="Эллипс_3" data-name="Эллипс 3" cx="115.905" cy="15.14" r="4.065" style="fill:#eef"/><path id="Эллипс_5" data-name="Эллипс 5" class="cls-1" d="M2382.23 2085.32a15.769 15.769 0 0 0 2.27 4.22c1.1 1.14 4.09 2.09 4.09 2.09a14.159 14.159 0 0 0-4.15 2.13 14.842 14.842 0 0 0-2.21 4.18 19.443 19.443 0 0 0-2.4-4.38c-1.02-1.12-3.95-1.93-3.95-1.93a13.879 13.879 0 0 0 4.14-2.14 14.83 14.83 0 0 0 2.21-4.17Z" transform="translate(-2368 -2078)"/></svg>