<svg version="1.0" xmlns="http://www.w3.org/2000/svg" width="800" height="800" viewBox="0 0 600 600"><path d="M295.7 28.8c-3.9 10.5-21.2 53-25.5 62.2-30.9 67.2-55.1 104-82.4 125.7-25.3 20-70.9 44.5-117.8 63.3-5.8 2.3-11.4 4.5-12.5 5-3.3 1.4-25.6 9.7-31.2 11.7-2.9 1-5.3 2.1-5.3 2.4 0 .4 2.6 1.4 5.8 2.3 15.3 4.3 39.5 12.8 60.2 21.1 51.2 20.6 86 40.9 105 61.3 19.3 20.5 39.9 53.3 65.4 103.7 12.1 23.7 16.3 32.7 23.4 48.5 1.3 3 3.4 7.7 4.7 10.5 1.2 2.7 4.6 10.6 7.5 17.5 5.1 12.2 7 15.8 7 13.1 0-1.6 9.7-26.8 16.7-43.6 29.8-70.6 57.8-118.7 82.9-142.6 13.6-12.8 34.7-27.1 60.9-41.1 13.2-7.1 43.6-21.8 45-21.8.2 0 3.6-1.5 7.7-3.4 8.9-4.1 41.8-17.1 54.6-21.6 5-1.8 9.2-3.5 9.2-3.9 0-.3-3.7-1.9-8.3-3.4-7.8-2.7-25-8.9-29.2-10.7-1.1-.4-7.8-3.2-15-6-18.5-7.5-26.8-11.1-45.3-20.1-45.8-22.1-72.7-41.3-92.3-65.9-18.9-23.8-44.5-70.3-65.4-118.5-2.6-6.1-5.5-12.8-6.5-15-1-2.2-4.8-11.8-8.6-21.3-3.7-9.4-7-17.2-7.3-17.2-.4 0-1.9 3.5-3.4 7.8z"/></svg>