<svg xmlns="http://www.w3.org/2000/svg" width="283" height="182"><defs><linearGradient id="a" x1="0%" x2="0%" y1="100%" y2="0%"><stop offset="0%" stop-color="#19243D"/><stop offset="28%" stop-color="#192F46"/><stop offset="50%" stop-color="#19394E"/><stop offset="100%" stop-color="#19243D"/></linearGradient></defs><path fill-rule="evenodd" fill="url(#a)" d="M268.024 163.395c1.91 2.125 2.885 3.924 2.321 4.617-.551.677-2.428.139-4.816-1.228.569 8.424.242 14.693-.9 14.81-1.149.118-2.753-6.029-3.906-14.471-2.059 1.821-3.785 2.726-4.462 2.175-.679-.552-.138-2.434 1.234-4.828-8.428.57-14.701.244-14.818-.899-.116-1.137 5.902-2.719 14.208-3.869-1.734-1.994-2.588-3.656-2.05-4.317.552-.678 2.429-.14 4.818 1.228-.336-4.969-.358-9.177-.087-11.826l-8.159-54.796c-.911 3.566-1.821 5.835-2.429 5.739-.836-.133-.84-4.688-.105-10.821l-80.897 75.836c2.118-1.026 3.565-1.487 3.808-1.113.404.622-2.599 3.315-7.052 6.438 1.668.651 2.709 1.382 2.591 1.938-.118.556-1.365.8-3.151.717 2.827 4.705 4.498 8.428 3.872 8.835-.629.408-3.371-2.662-6.535-7.192-.662 1.732-1.413 2.822-1.981 2.702-.555-.119-.801-1.364-.718-3.151-4.704 2.827-8.427 4.497-8.833 3.871-.409-.63 2.671-3.38 7.213-6.551-1.663-.651-2.7-1.38-2.582-1.935.118-.555 1.364-.8 3.151-.717a70.26 70.26 0 0 1-.498-.839l-60.46-61.403c-.067.672-.238 1.105-.516 1.166-.427.093-.994-.702-1.504-1.979-2.396 3.477-4.473 5.83-4.956 5.521-.487-.31.796-3.217 2.968-6.882-1.372.073-2.33-.108-2.424-.534-.092-.417.672-.968 1.899-1.469l-.782-.633c-1.811-1.29-3.243-2.448-4.026-3.259L23.277 42.321c.645 1.86.779 3.198.236 3.518-.646.38-2.087-.768-3.736-2.811-2.308 7.901-4.729 13.572-5.803 13.295-1.093-.282-.431-6.622 1.444-14.857-2.483 1.028-4.343 1.355-4.729.7-.351-.595.615-1.87 2.361-3.353C5.519 36.569.197 34.258.466 33.216c.275-1.064 6.301-.458 14.22 1.306-1.121-2.624-1.499-4.616-.819-5.017.666-.392 2.177.842 3.889 3.003 2.279-7.736 4.651-13.254 5.71-12.981 1.042.269.491 6.041-1.187 13.713 2.499-1.037 4.387-1.384 4.775-.726.327.554-.498 1.704-2.025 3.06l111.783-21.39c.449-.503 1.386-1.054 2.679-1.569-5.219-3.595-8.752-6.712-8.287-7.438.461-.722 4.733 1.154 10.149 4.351-.09-1.981.185-3.354.809-3.492.64-.141 1.492 1.051 2.258 2.968 3.593-5.214 6.708-8.746 7.433-8.282.722.461-1.15 4.722-4.337 10.127 2.063-.111 3.506.16 3.647.801.14.639-1.05 1.489-2.963 2.253 4.18 2.882 7.276 5.451 8.094 6.729l91.015 57.162c-.656-1.488-.854-2.614-.396-2.947.531-.385 1.788.366 3.257 1.816 1.206-6.215 2.647-10.699 3.497-10.564.845.133.837 4.788.078 11.016 1.847-.928 3.278-1.256 3.663-.726.385.53-.367 1.788-1.817 3.256 6.217 1.206 10.701 2.647 10.566 3.498-.135.855-4.887.836-11.216.054.973 1.903 1.333 3.39.791 3.784-.53.385-1.787-.365-3.255-1.815a97.582 97.582 0 0 1-.451 2.195l8.152 54.745c.113-.183.237-.29.373-.304 1.135-.116 2.714 5.884 3.863 14.17 2.064-1.827 3.795-2.737 4.473-2.185.677.551.142 2.424-1.222 4.807 8.421-.569 14.687-.243 14.804.899.117 1.148-6.017 2.749-14.445 3.902Zm-21.937-85.188-90.368-56.754c-1.542-.238-5.18-1.98-9.54-4.563.133 2.142-.136 3.651-.792 3.795-.64.142-1.491-1.049-2.257-2.966-3.593 5.214-6.708 8.745-7.433 8.28-.73-.466 1.193-4.825 4.453-10.323-1.646.088-2.894-.068-3.4-.462L23.742 36.838c8.019 2.327 13.799 4.786 13.52 5.87-.264 1.022-5.817.511-13.264-1.09l63.74 51.596c1.169.335 3.316 1.39 5.859 2.891-.065-1.338.118-2.268.538-2.361.427-.094.994.702 1.504 1.98 2.396-3.477 4.473-5.832 4.957-5.522.48.307-.767 3.148-2.892 6.751 1.375-.074 2.337.107 2.431.534.095.429-.713 1.001-2.006 1.514 3.479 2.396 5.85 4.476 5.54 4.959-.305.479-3.131-.77-6.707-2.876l58.5 59.412c-1.356-2.634-2.004-4.466-1.575-4.743.623-.405 3.323 2.608 6.452 7.073.64-1.6 1.351-2.588 1.894-2.472.555.118.8 1.363.717 3.15.567-.34 1.118-.662 1.653-.968l82.425-77.268c-.879.261-1.517.266-1.754-.06-.385-.53.368-1.789 1.82-3.258-6.217-1.206-10.703-2.646-10.569-3.496.124-.778 4.076-.835 9.562-.247Z"/></svg>