<svg xmlns="http://www.w3.org/2000/svg" width="255" height="174"><defs><linearGradient id="a" x1="0%" x2="0%" y1="100%" y2="0%"><stop offset="0%" stop-color="#19243D"/><stop offset="28%" stop-color="#192F46"/><stop offset="50%" stop-color="#19394E"/><stop offset="100%" stop-color="#19243D"/></linearGradient></defs><path fill-rule="evenodd" fill="url(#a)" d="M240.484 43.364c2.123 1.745 3.292 3.307 2.855 4.062-.438.757-2.383.518-4.963-.458 1.896 8.233 2.566 14.48 1.457 14.776-1.105.295-3.618-5.396-6.067-13.415-1.695 2.029-3.202 3.132-3.939 2.705-.757-.438-.522-2.377.451-4.951-6.36 1.464-11.52 2.192-13.678 1.937l-69.432 20.03c1.766.38 2.924.94 2.895 1.51-.029.567-1.221 1.006-2.998 1.207 3.537 4.198 5.774 7.611 5.22 8.111-.557.503-3.759-2.103-7.608-6.086-.259 1.193-.602 2.098-.973 2.544l15.939 75.587c.322-4.301.908-7.18 1.585-7.182.865-.001 1.598 4.694 1.826 11.067 1.726-1.262 3.137-1.853 3.612-1.38.464.463-.08 1.823-1.279 3.502 6.33.207 10.984.922 10.986 1.783.001.867-4.707 1.602-11.094 1.829 1.204 1.672 1.751 3.029 1.289 3.493-.462.464-1.823-.08-3.502-1.28-.208 6.33-.922 10.985-1.783 10.986-.858.002-1.586-4.611-1.821-10.898-1.622 1.149-2.93 1.663-3.383 1.211-.464-.462.08-1.823 1.28-3.502-6.33-.208-10.985-.922-10.987-1.783-.001-.856 4.596-1.583 10.866-1.819-1.208-1.677-1.759-3.038-1.296-3.502.46-.462 1.809.073 3.477 1.26l-16.752-79.441c-.32-.487-.565-1.416-.701-2.617-4.197 3.535-7.61 5.773-8.11 5.219-.498-.551 2.051-3.695 5.965-7.491-1.68-.379-2.769-.923-2.741-1.477.022-.432.727-.787 1.841-1.022L25.25 22.466c-.703-.034-1.422-.074-2.159-.122 1.403 2.288 2.017 4.074 1.432 4.558-.533.441-1.941-.297-3.686-1.792-1.025 7.785-2.464 13.402-3.536 13.301-1.094-.103-1.448-6.149-.958-14.248-2.414 1.522-4.321 2.211-4.824 1.603-.492-.595.496-2.284 2.357-4.314C5.873 20.424.046 18.955.149 17.865c.1-1.071 5.88-1.439 13.715-.996-1.421-2.307-2.049-4.112-1.46-4.599.639-.53 2.537.635 4.77 2.776C18.204 6.662 19.733.472 20.856.578c1.1.103 1.456 6.205.956 14.364 2.168-1.298 3.843-1.848 4.31-1.283.477.577-.431 2.182-2.187 4.133 8.167 1.029 14.151 2.523 14.047 3.628-.083.88-4.015 1.285-9.766 1.155l111.322 44.474c-3.221-3.898-5.206-6.991-4.681-7.466.551-.497 3.684 2.042 7.471 5.945.38-1.751.938-2.893 1.505-2.865.567.029 1.007 1.22 1.207 2.998 4.198-3.535 7.61-5.773 8.11-5.22.44.487-1.493 2.992-4.641 6.181l67.034-19.338c.488-1.202 5.911-3.528 13.351-5.802-2.129-1.749-3.304-3.315-2.867-4.071.437-.755 2.372-.521 4.94.448-1.893-8.225-2.562-14.465-1.453-14.761 1.114-.298 3.664 5.504 6.135 13.641 1.797-2.225 3.419-3.465 4.193-3.017.756.438.522 2.376-.451 4.95 8.229-1.894 14.47-2.562 14.766-1.453.298 1.116-5.518 3.671-13.673 6.145Z"/></svg>