<svg xmlns="http://www.w3.org/2000/svg" width="252" height="197"><defs><linearGradient id="a" x1="0%" x2="0%" y1="100%" y2="0%"><stop offset="0%" stop-color="#19243D"/><stop offset="28%" stop-color="#192F46"/><stop offset="50%" stop-color="#19394E"/><stop offset="100%" stop-color="#19243D"/></linearGradient></defs><path fill-rule="evenodd" fill="url(#a)" d="M252 80.874c0 .866-4.7 1.591-11.077 1.807 1.263 1.731 1.854 3.148 1.38 3.622-.463.463-1.823-.083-3.499-1.286-.22 6.33-.943 10.982-1.805 10.982-.866 0-1.592-4.709-1.807-11.096-1.675 1.2-3.033 1.745-3.496 1.282-.464-.463.086-1.827 1.292-3.507-6.332-.22-10.988-.942-10.988-1.804 0-.857 4.611-1.577 10.896-1.8-.831-1.18-1.322-2.189-1.356-2.827l-62.917-62.918a.396.396 0 0 1-.088.206c-.309.309-1.215-.055-2.333-.857-.146 4.22-.628 7.321-1.203 7.321-.577 0-1.062-3.137-1.205-7.397-.922.66-1.693 1.016-2.11.948l-23.868 20.788c.15.073.265.163.311.284.199.532-.719 1.409-2.268 2.301 4.916 2.441 8.328 4.679 8.019 5.359-.31.683-4.276-.428-9.382-2.542.374 1.815.331 3.141-.212 3.345-.531.199-1.408-.719-2.3-2.269-2.442 4.916-4.68 8.328-5.359 8.02-.684-.31.431-4.287 2.551-9.405-1.753.348-3.02.292-3.22-.239-.066-.177.015-.399.178-.64l-60.31 10.74c1.381.595 2.18 1.247 2.11 1.85-.1.868-1.971 1.426-4.719 1.56 5.016 6.792 8.117 12.25 7.217 12.964-.904.718-5.565-3.595-11.084-10.089-.452 1.583-.98 2.825-1.518 3.544l-3.977 54.086c.733-.963 1.395-1.471 1.837-1.298.61.24.655 1.703.224 3.722 5.887-2.331 10.44-3.531 10.785-2.742.346.792-3.667 3.336-9.422 6.085 1.845 1.08 2.949 2.14 2.705 2.763-.239.61-1.703.653-3.721.222 2.332 5.889 3.531 10.442 2.742 10.787-.794.346-3.344-3.678-6.097-9.445-1.055 1.771-2.081 2.812-2.691 2.573-.188-.073-.316-.275-.399-.562l-26.474 44.384c.136.937-.242 2.676-1.022 4.783 8.101-2.396 14.386-3.461 14.737-2.389.344 1.05-5.11 3.808-12.793 6.602 2.055 1.471 3.227 2.788 2.895 3.44-.339.669-2.174.476-4.662-.357 2.311 7.9 3.325 13.984 2.27 14.328-1.072.351-3.927-5.343-6.782-13.289-1.539 2.2-2.932 3.474-3.61 3.13-.617-.312-.501-1.897.175-4.094-7.549 2.163-13.274 3.081-13.608 2.058-.342-1.044 5.062-3.779 12.685-6.557-2.358-1.608-3.749-3.082-3.392-3.786.349-.688 2.292-.456 4.895.442-2.246-7.749-3.221-13.679-2.181-14.019 1.023-.335 3.664 4.82 6.381 12.183 1.32-1.895 2.535-3.111 3.287-3.212l27.16-45.533c.048-.392.117-.816.215-1.273-5.888 2.332-10.441 3.532-10.785 2.743-.344-.786 3.596-3.293 9.269-6.014-1.7-1.029-2.693-2.024-2.459-2.62.239-.61 1.704-.653 3.723-.222-2.332-5.888-3.533-10.442-2.744-10.787.764-.334 3.157 3.391 5.791 8.814l3.99-54.257c-.006-.001-.012.002-.017.001-.87-.099-1.428-1.977-1.56-4.733-6.794 5.018-12.256 8.124-12.97 7.223-.71-.895 3.508-5.468 9.886-10.91-2.536-.746-4.148-1.688-4.051-2.535.1-.867 1.972-1.425 4.721-1.559-5.016-6.791-8.118-12.25-7.219-12.963.894-.71 5.455 3.496 10.886 9.858.755-2.65 1.724-4.349 2.592-4.249.867.099 1.425 1.965 1.559 4.707 6.789-5.013 12.244-8.113 12.958-7.214.717.903-3.588 5.554-10.065 11.063.14.039.281.078.416.118l63.698-11.344c.195-.127.391-.254.615-.382-4.915-2.442-8.33-4.679-8.021-5.359.307-.677 4.206.408 9.247 2.485-.322-1.692-.256-2.908.263-3.103.532-.2 1.409.72 2.301 2.27 2.441-4.916 4.679-8.33 5.358-8.022.676.307-.404 4.193-2.474 9.222a10.713 10.713 0 0 1 1.575-.203l25.137-21.895c.164-.34.398-.728.7-1.15-4.21-.147-7.312-.626-7.312-1.199 0-.572 3.084-1.05 7.278-1.199-.772-1.091-1.118-1.971-.814-2.274.309-.309 1.216.056 2.334.858.146-4.22.628-7.322 1.201-7.322.571 0 1.05 3.065 1.2 7.245 1.119-.803 2.027-1.168 2.336-.859.311.31-.06 1.225-.871 2.351 4.224.146 7.335.626 7.335 1.2 0 .567-3.02 1.045-7.157 1.198l64.403 64.403c.66.034 1.718.56 2.952 1.444.219-6.328.942-10.982 1.802-10.982.856 0 1.575 4.598 1.8 10.868 1.678-1.204 3.04-1.753 3.504-1.289.462.463-.082 1.819-1.281 3.492 6.327.22 10.978.942 10.978 1.803Z"/></svg>