<svg xmlns="http://www.w3.org/2000/svg" width="301.88" height="239.84"><defs><linearGradient id="a" x1="1774.94" y1="4511.09" x2="1774.94" y2="4271.25" gradientUnits="userSpaceOnUse"><stop offset="0" stop-color="#19243d"/><stop offset=".505" stop-color="#19394e"/><stop offset="1" stop-color="#19243d"/></linearGradient></defs><path data-name="Эллипс 1" d="M1728 4323.69c5.52 0 10 .56 10 1.25s-4.48 1.25-10 1.25-10-.56-10-1.25 4.48-1.25 10-1.25Zm0-8.69c.69 0 1.25 4.48 1.25 10s-.56 10-1.25 10-1.25-4.48-1.25-10 .56-10 1.25-10Zm-3.54 6.46c.49-.48 2.47.7 4.42 2.66s3.14 3.93 2.66 4.41-2.47-.69-4.42-2.65-3.14-3.93-2.66-4.42Zm7.08-.07c.48.48-.7 2.46-2.66 4.42s-3.93 3.14-4.42 2.65.7-2.47 2.66-4.42 3.93-3.14 4.42-2.65Zm100.8 135.52c8.65-6.87 16.36-11.56 17.22-10.47s-5.46 7.52-14.11 14.39-16.36 11.55-17.22 10.47 5.46-7.52 14.11-14.39Zm-10.77-13.58c1.08-.85 7.52 5.46 14.39 14.12s11.55 16.36 10.47 17.22-7.52-5.46-14.39-14.12-11.55-16.36-10.47-17.22Zm2.49 14.53c.16-1.38 4.74-1.98 10.23-1.34s9.8 2.25 9.64 3.62-4.73 1.97-10.22 1.34-9.8-2.25-9.65-3.62Zm10.99-8.92c1.37.16 1.97 4.74 1.34 10.22s-2.26 9.81-3.63 9.65-1.97-4.73-1.34-10.22 2.25-9.81 3.63-9.65Zm79.66-80.51c6.54 2.97 11.54 6.03 11.17 6.85s-5.97-.92-12.51-3.89-11.54-6.04-11.17-6.86 5.98.93 12.51 3.9Zm4.66-10.27c.82.37-.92 5.97-3.89 12.51s-6.04 11.54-6.86 11.17.93-5.98 3.9-12.51 6.04-11.54 6.85-11.17Zm-7.65 5.75c.83-.31 2.54 2.16 3.8 5.52s1.6 6.34.76 6.65-2.54-2.15-3.8-5.51-1.61-6.34-.76-6.66Zm8.41 3.71c.31.84-2.16 2.55-5.52 3.81s-6.34 1.6-6.65.76 2.15-2.54 5.51-3.8 6.34-1.61 6.66-.77Zm-282.19-53.12.12-1 90 11-.12 1Zm90.22 10.97-.32-.95 120-39.99.32.94Zm119.44-40.16.79-.62 66 85-.79.62Zm66.03 84.36.74.66-80 89-.74-.67Zm-79.73 88.84.2.98-162 34-.2-.98Zm12.6-172.55 1 .08-14 173-1-.08Zm-176.74 205.54c2.38-4.68 5.15-8.04 6.21-7.5s-.02 4.76-2.39 9.44-5.15 8.04-6.2 7.5.01-4.76 2.38-9.44Zm1.5-.76c9.97-3.26 18.39-4.9 18.8-3.65s-7.35 4.9-17.32 8.17-18.39 4.9-18.8 3.65 7.35-4.9 17.32-8.17Zm-5.31-15.75c1.25-.41 4.9 7.34 8.17 17.32s4.89 18.39 3.65 18.79-4.91-7.34-8.17-17.32-4.9-18.38-3.65-18.79Zm4.78 19.76c-4.67-2.36-8.03-5.13-7.5-6.19s4.76.02 9.43 2.39 8.03 5.13 7.5 6.18-4.76-.01-9.43-2.38Zm176.47-211.58c7.59-3.31 14.08-5.23 14.5-4.28s-5.41 4.4-13 7.72-14.08 5.23-14.49 4.29 5.4-4.41 12.99-7.73Zm-5.2-11.92c.94-.41 4.4 5.41 7.72 13s5.23 14.08 4.28 14.5-4.4-5.41-7.72-13-5.23-14.08-4.28-14.5Zm-.98 11.01c.38-.96 3.81-.52 7.66.99s6.68 3.52 6.3 4.49-3.81.52-7.66-.99-6.68-3.52-6.3-4.49Zm9.67-4.35c.96.38.52 3.81-.99 7.67s-3.52 6.67-4.48 6.29-.52-3.81.99-7.66 3.52-6.68 4.48-6.3ZM1639 4312c8.28 0 15 .84 15 1.87s-6.72 1.88-15 1.88-15-.84-15-1.88 6.72-1.87 15-1.87Zm0-13c1.03 0 1.87 6.72 1.87 15s-.84 15-1.87 15-1.88-6.72-1.88-15 .84-15 1.88-15Zm-5.3 9.7c.73-.74 3.7 1.04 6.63 3.97s4.71 5.9 3.97 6.63-3.7-1.05-6.63-3.97-4.71-5.9-3.97-6.63Zm10.6-.12c.74.73-1.05 3.7-3.97 6.63s-5.9 4.71-6.63 3.98 1.04-3.71 3.97-6.63 5.9-4.71 6.63-3.98Z" transform="translate(-1624 -4271.25)" style="fill-rule:evenodd;fill:url(#a)"/></svg>