<svg xmlns="http://www.w3.org/2000/svg" width="255" height="239"><defs><linearGradient id="a" x1="0%" x2="0%" y1="100%" y2="0%"><stop offset="0%" stop-color="#19243D"/><stop offset="28%" stop-color="#192F46"/><stop offset="50%" stop-color="#19394E"/><stop offset="100%" stop-color="#19243D"/></linearGradient></defs><path fill-rule="evenodd" fill="url(#a)" d="M254.585 28.337c-.684.93-6.317-2.005-13.351-6.815-.032 2.749-.519 4.636-1.381 4.768-.866.133-1.898-1.531-2.752-4.154-1.026 1.3-2.02 2.512-2.966 3.622l-57.701 187.585c.431.809.545 2.657.338 5.014 7.184-4.447 12.969-7.13 13.591-6.188.607.922-3.928 5.019-10.603 9.737 2.37.878 3.847 1.84 3.699 2.558-.151.734-1.97 1.033-4.591.884 4.31 7.012 6.89 12.613 5.964 13.223-.942.621-5.197-4.121-10.043-11.034-.905 2.528-1.913 4.124-2.658 3.971-.678-.139-.982-1.699-.908-3.998-6.714 4.077-11.996 6.471-12.588 5.572-.604-.917 3.885-4.979 10.507-9.668-2.104-.725-3.612-1.526-4.099-2.211l-66.133-9.857c-.619.256-1.572.428-2.755.495 3.802 5.067 6.155 9.142 5.484 9.683-.674.543-4.194-2.667-8.369-7.505-.551 1.986-1.267 3.261-1.918 3.191-.651-.07-1.08-1.47-1.196-3.531-5.065 3.8-9.141 6.157-9.682 5.487-.538-.668 2.605-4.124 7.361-8.242-1.912-.546-3.133-1.245-3.065-1.881.07-.652 1.473-1.079 3.533-1.195-1.936-2.581-3.499-4.905-4.474-6.634L17.084 126.66c-.032.053-.051.122-.099.157-.46.332-1.548-.323-2.817-1.584-1.061 5.385-2.32 9.268-3.056 9.149-.742-.119-.715-4.248-.018-9.744-1.599.797-2.835 1.076-3.167.616-.333-.46.322-1.548 1.582-2.817-5.385-1.06-9.268-2.32-9.149-3.057.118-.734 4.165-.714 9.576-.038-.756-1.548-1.014-2.738-.564-3.063.46-.332 1.548.323 2.818 1.583 1.06-5.385 2.319-9.268 3.056-9.149.732.118.714 4.152.042 9.548 1.602-.799 2.843-1.081 3.175-.62.315.436-.265 1.439-1.398 2.622l132.977-26.502c-1.041-.987-1.561-1.829-1.301-2.286.325-.568 1.781-.399 3.715.319-1.456-6.164-1.983-10.843-1.153-11.07.826-.225 2.731 4.02 4.6 10.01.973-1.198 1.861-1.974 2.491-2.163l74.542-68.855.219-.325c-2.643-.052-4.446-.536-4.576-1.379-.132-.863 1.527-1.894 4.144-2.747-6.627-5.231-11.059-9.679-10.379-10.605.676-.919 6.183 1.937 13.099 6.644.03-2.756.517-4.651 1.381-4.783.863-.132 1.892 1.521 2.744 4.131 5.229-6.624 9.675-11.052 10.6-10.373.929.683-1.998 6.303-6.796 13.324 2.86.009 4.842.497 4.977 1.382.132.863-1.526 1.894-4.142 2.747 6.629 5.23 11.057 9.679 10.378 10.605Zm-23.902-5.178-71.445 65.993c.11.656-.104 1.757-.611 3.123 6.161-1.454 10.838-1.982 11.065-1.152.228.835-4.114 2.773-10.209 4.66 1.674 1.338 2.617 2.548 2.284 3.13-.325.569-1.78.401-3.714-.318 1.455 6.164 1.983 10.843 1.152 11.07-.835.228-2.776-4.123-4.667-10.228-1.299 1.599-2.465 2.482-3.034 2.157-.569-.325-.398-1.785.323-3.724-6.167 1.457-10.849 1.986-11.076 1.155-.203-.743 3.217-2.363 8.274-4.043L18.991 120.9c4.256.951 7.141 1.978 7.038 2.615-.119.74-4.235.716-9.719.022.272.535.478 1.022.628 1.461l65.775 73.469c.005-.134.03-.245.102-.302.666-.537 4.111 2.592 8.22 7.333.551-1.992 1.268-3.272 1.921-3.202.651.07 1.08 1.471 1.195 3.532 5.066-3.8 9.142-6.157 9.682-5.487.543.674-2.659 4.185-7.486 8.353 1.857.499 3.096 1.139 3.28 1.748l65.615 9.78c.697-.428 2.33-.575 4.467-.434-4.208-6.883-6.704-12.342-5.791-12.945.898-.591 4.803 3.685 9.362 10.07.734-2.062 1.537-3.513 2.214-3.914l57.027-185.394c-3.083 3.427-5.392 5.383-6.029 4.915-.746-.548.994-4.279 4.191-9.361Z"/></svg>