<svg xmlns="http://www.w3.org/2000/svg" width="276" height="251"><defs><linearGradient id="a" x1="0%" x2="0%" y1="100%" y2="0%"><stop offset="0%" stop-color="#19243D"/><stop offset="28%" stop-color="#192F46"/><stop offset="50%" stop-color="#19394E"/><stop offset="100%" stop-color="#19243D"/></linearGradient></defs><path fill-rule="evenodd" fill="url(#a)" d="M262.404 19.413c2.336 1.639 3.707 3.133 3.34 3.832-.359.684-2.294.432-4.887-.503 2.139 7.775 3.031 13.715 1.986 14.042-1.027.319-3.597-4.871-6.212-12.269-1.58 2.201-3.003 3.477-3.68 3.122-.546-.287-.494-1.578.022-3.404l-85.807 100.681a15.55 15.55 0 0 1-.593.864c6.328.306 10.974 1.094 10.962 1.955-.012.857-4.632 1.514-10.92 1.651 1.119 1.635 1.611 2.948 1.153 3.394-.469.456-1.822-.109-3.482-1.335-.307 6.326-1.093 10.969-1.954 10.957-.665-.009-1.21-2.796-1.485-6.979l-28.168 102.207c.149.421.174 1.142.073 2.046 3.748-1.927 6.688-3.022 6.968-2.521.279.499-2.179 2.422-5.768 4.599 1.206.575 1.937 1.174 1.82 1.587-.118.42-1.088.545-2.455.391 1.932 3.754 3.026 6.697 2.525 6.977-.499.279-2.413-2.163-4.584-5.739-.585 1.247-1.199 2.009-1.619 1.891-.422-.12-.545-1.099-.387-2.477-3.758 1.934-6.708 3.033-6.989 2.532-.281-.503 2.216-2.45 5.847-4.646-1.286-.593-2.081-1.221-1.96-1.649.118-.421 1.087-.545 2.454-.391-1.931-3.754-3.024-6.697-2.523-6.978.504-.281 2.458 2.223 4.662 5.87.301-.641.609-1.15.895-1.48l29.06-105.443c-.006-.222-.006-.466-.011-.693-1.697 1.184-3.068 1.715-3.526 1.245-.456-.469.107-1.819 1.33-3.477-6.322-.307-10.965-1.091-10.953-1.951.012-.866 4.72-1.526 11.1-1.654-1.239-1.749-1.81-3.173-1.33-3.641.47-.456 1.822.109 3.482 1.334.306-6.326 1.093-10.968 1.955-10.956.866.011 1.527 4.729 1.654 11.12 1.692-1.178 3.057-1.704 3.513-1.235.034.035.035.096.058.14l85.376-100.174c-7.973 2.219-14.111 3.158-14.442 2.095-.212-.676 1.983-2.026 5.613-3.614l-103.64 12.76c1.226.583 1.933 1.202 1.86 1.768-.112.867-1.991 1.399-4.742 1.495 4.922 6.859 7.949 12.36 7.04 13.061-.903.697-5.406-3.571-10.75-10.007-.791 2.64-1.783 4.325-2.65 4.213-.865-.111-1.397-1.984-1.494-4.728-6.857 4.92-12.355 7.944-13.056 7.036-.537-.697 1.878-3.532 5.956-7.239L27.777 83.508a.31.31 0 0 1 .143.144c.332.791-3.641 3.243-9.351 5.885 1.685 1.053 2.664 2.061 2.422 2.654-.247.607-1.713.63-3.725.171 2.251 5.919 3.389 10.49 2.595 10.824-.789.331-3.234-3.629-5.871-9.323-1.081 1.762-2.124 2.796-2.731 2.548-.606-.248-.629-1.713-.17-3.725C5.169 94.937.599 96.074.265 95.28c-.335-.797 3.713-3.286 9.504-5.956-1.83-1.105-2.919-2.179-2.666-2.799.247-.607 1.712-.63 3.724-.171-2.251-5.92-3.388-10.489-2.594-10.823.798-.336 3.293 3.724 5.967 9.53 1.079-1.757 2.12-2.787 2.726-2.539.008.004.013.017.021.021l20.719-40.808c-.014-.576.116-1.369.381-2.303-5.226 1.678-9.233 2.455-9.485 1.752-.254-.706 3.363-2.675 8.497-4.721-1.534-1.04-2.428-2.019-2.181-2.544.242-.514 1.511-.467 3.231.021-1.678-5.226-2.454-9.232-1.751-9.485.706-.254 2.681 3.373 4.73 8.519 1.014-1.471 1.961-2.314 2.475-2.072.513.242.466 1.511-.023 3.231 5.226-1.678 9.233-2.454 9.486-1.752.252.7-3.299 2.64-8.361 4.667 1.41.988 2.212 1.906 1.976 2.408-.242.513-1.512.466-3.233-.023 1.678 5.226 2.455 9.234 1.753 9.486-.698.251-2.633-3.287-4.656-8.335-.856 1.242-1.661 2.03-2.202 2.106L17.402 83.856c.009.634-.089 1.441-.305 2.389 3.138-1.193 5.893-2.072 7.841-2.516l100.775-46.982c.515-.44 1.041-.884 1.589-1.338-2.745-.799-4.515-1.816-4.401-2.704.112-.866 1.99-1.398 4.74-1.494-4.922-6.86-7.948-12.36-7.039-13.062.915-.705 5.517 3.674 10.945 10.241.791-2.632 1.781-4.311 2.647-4.199.868.112 1.4 1.996 1.494 4.754 6.863-4.925 12.367-7.954 13.068-7.044.698.904-3.582 5.419-10.035 10.773.062.019.115.039.176.059l109.14-13.438c1.168-.45 2.44-.908 3.755-1.365-2.038-1.501-3.194-2.836-2.853-3.485.348-.663 2.178-.448 4.656.42-2.201-7.93-3.132-14.026-2.073-14.356 1.078-.337 3.854 5.397 6.599 13.381 1.57-2.179 2.98-3.434 3.653-3.081.613.321.475 1.905-.231 4.093 7.578-2.06 13.315-2.899 13.635-1.872.327 1.049-5.114 3.709-12.774 6.383Z"/></svg>