<svg xmlns="http://www.w3.org/2000/svg" width="233" height="198"><defs><linearGradient id="a" x1="0%" x2="0%" y1="100%" y2="0%"><stop offset="0%" stop-color="#19243D"/><stop offset="28%" stop-color="#192F46"/><stop offset="50%" stop-color="#19394E"/><stop offset="100%" stop-color="#19243D"/></linearGradient></defs><path fill-rule="evenodd" fill="url(#a)" d="M227.369 8.018c1.343.451 2.201.989 2.127 1.428-.073.431-1.024.659-2.401.654 2.326 3.522 3.735 6.331 3.267 6.663-.47.335-2.685-1.942-5.27-5.33-.446 1.3-.973 2.121-1.403 2.048-.126-.021-.233-.125-.323-.285l-33.421 88.305c.065.496.096 1.075.094 1.716 5.283-3.489 9.489-5.592 9.989-4.89.502.705-2.907 4.019-7.978 7.892 2.033.679 3.335 1.49 3.224 2.151-.109.647-1.534.989-3.597.982 3.49 5.285 5.598 9.495 4.897 9.994-.706.502-4.028-2.913-7.906-7.993-.668 1.95-1.459 3.18-2.105 3.071-.647-.109-.991-1.537-.982-3.606-5.286 3.491-9.499 5.601-9.998 4.9-.362-.51 1.319-2.383 4.185-4.841L55.417 174.354c-.445.784-1.412 1.773-2.749 2.826 8.025 2.627 13.715 5.276 13.396 6.38-.321 1.109-6.62.295-14.881-1.796.918 2.59 1.111 4.53.346 4.951-.766.423-2.309-.783-4.014-2.951-2.627 8.028-5.278 13.723-6.381 13.404-1.098-.318-.312-6.489 1.731-14.621-2.499.862-4.359 1.029-4.771.283-.421-.766.781-2.305 2.944-4.008-8.024-2.626-13.717-5.275-13.398-6.378.317-1.096 6.471-.313 14.585 1.722-.921-2.597-1.116-4.543-.351-4.965.764-.422 2.3.776 3.999 2.932 2.626-8.021 5.274-13.709 6.377-13.39 1.108.321.296 6.606-1.789 14.85 2.651-.964 4.654-1.191 5.123-.446l127.787-65.231c-1.84-.655-2.994-1.415-2.889-2.04.109-.645 1.534-.988 3.597-.98a86.107 86.107 0 0 1-2.647-4.253l-50.187-43.156c-2.243-1.236-5.058-3.01-8.133-5.148.021 2.685-.375 4.531-1.127 4.644-.684.102-1.509-1.257-2.232-3.438-4.897 6.138-9.029 10.205-9.894 9.566-.884-.653 1.934-6.014 6.534-12.697-2.297.046-4.015-.206-4.665-.711l-88.312 4.939c-1.578.541-3.674 1.123-6.074 1.675 1.357 1.262 2.091 2.366 1.767 2.847-.317.471-1.565.231-3.19-.514.861 5.421 1.016 9.499.283 9.641-.737.143-2.135-3.742-3.375-9.141-1.226 1.299-2.291 1.987-2.761 1.67-.471-.318-.23-1.565.515-3.191-5.42.861-9.499 1.016-9.641.284-.143-.729 3.663-2.105 8.975-3.336-1.243-1.192-1.895-2.221-1.585-2.681.318-.47 1.565-.23 3.191.516-.861-5.421-1.016-9.5-.283-9.643.728-.141 2.1 3.652 3.328 8.95 1.229-1.303 2.297-1.995 2.768-1.678.471.318.231 1.565-.515 3.191 5.421-.861 9.499-1.016 9.642-.284.03.155-.127.34-.429.546l85.639-4.79c.55-.626 2.01-1.304 4.003-1.89-6.319-5.01-10.548-9.275-9.898-10.156.639-.864 5.779 1.805 12.26 6.228-.026-2.709.369-4.579 1.125-4.693.821-.123 1.844 1.855 2.651 4.841 5.211-6.648 9.716-11.16 10.624-10.489.888.656-1.958 6.065-6.598 12.795 2.527.007 4.245.401 4.354 1.126.11.741-1.493 1.648-4.005 2.412 6.462 5.097 10.814 9.465 10.155 10.358-.189.255-.78.193-1.671-.122l45.424 39.061c-.898-1.811-1.268-3.021-.913-3.274.698-.496 3.948 2.833 7.766 7.812.67-1.955 1.462-3.189 2.109-3.08.155.026.291.136.411.305l33.569-88.698c0-.05-.003-.096-.003-.147-3.515 2.321-6.321 3.735-6.653 3.268-.332-.466 1.904-2.644 5.235-5.197-1.261-.441-2.052-.957-1.981-1.381.073-.431 1.024-.659 2.401-.654-2.324-3.52-3.735-6.33-3.268-6.663.465-.331 2.633 1.889 5.178 5.209.446-1.303.974-2.127 1.405-2.055.434.073.661 1.037.653 2.427 3.524-2.328 6.34-3.748 6.674-3.28.333.469-1.938 2.675-5.309 5.251Z"/></svg>