<svg xmlns="http://www.w3.org/2000/svg" width="295" height="211"><defs><linearGradient id="a" x1="0%" x2="0%" y1="100%" y2="0%"><stop offset="0%" stop-color="#19243D"/><stop offset="28%" stop-color="#192F46"/><stop offset="50%" stop-color="#19394E"/><stop offset="100%" stop-color="#19243D"/></linearGradient></defs><path fill-rule="evenodd" fill="url(#a)" d="M294.879 39.282c-.31.683-4.276-.428-9.383-2.541.374 1.814.332 3.14-.212 3.343-.531.2-1.408-.718-2.3-2.268-2.442 4.916-4.68 8.329-5.359 8.02-.684-.31.43-4.287 2.55-9.404-1.752.347-3.019.291-3.219-.24-.056-.15-.014-.33.097-.529l-45.103 19.33c-1.395 1.192-4.598 3.035-8.673 4.981 1.845 1.08 2.95 2.14 2.705 2.763-.239.61-1.703.653-3.721.222 2.332 5.889 3.532 10.442 2.742 10.786-.794.348-3.344-3.677-6.097-9.444-1.055 1.771-2.081 2.813-2.691 2.574-.61-.24-.654-1.703-.223-3.722-5.888 2.332-10.441 3.532-10.785 2.743-.344-.786 3.596-3.293 9.268-6.014a12.413 12.413 0 0 1-1.261-.871L51.034 16.826c1.192 1.666 1.73 3.016 1.269 3.477-.463.463-1.823-.083-3.499-1.286-.22 6.33-.943 10.983-1.805 10.983-.866 0-1.592-4.711-1.807-11.097l-.097.069-26.514 73.356c.007.109.018.21.023.322 6.789-5.013 12.245-8.113 12.958-7.214.717.904-3.587 5.554-10.066 11.063 2.757.762 4.54 1.755 4.438 2.643-.089.773-1.586 1.298-3.853 1.498l114.881 60.558c.854-.114 2.342.179 4.168.809-2.246-7.749-3.221-13.678-2.18-14.019 1.022-.335 3.663 4.82 6.38 12.182 1.549-2.223 2.954-3.518 3.636-3.172.741.375.428 2.58-.646 5.481 8.1-2.396 14.387-3.461 14.738-2.388.343 1.049-5.112 3.807-12.795 6.601 2.054 1.47 3.227 2.787 2.896 3.44-.137.271-.529.393-1.1.396l38.576 28.128c-.271-.561-.363-1-.171-1.192.309-.309 1.216.056 2.334.858.146-4.22.627-7.322 1.202-7.322.57 0 1.049 3.065 1.199 7.246 1.119-.803 2.027-1.169 2.336-.86.311.31-.06 1.225-.871 2.351 4.224.146 7.336.625 7.336 1.2 0 .576-3.13 1.056-7.371 1.201.833 1.146 1.221 2.083.906 2.397-.309.309-1.215-.056-2.333-.857-.146 4.22-.628 7.321-1.202 7.321-.578 0-1.062-3.139-1.205-7.397-1.117.8-2.022 1.163-2.331.855-.307-.308.052-1.209.848-2.321-4.212-.147-7.312-.625-7.312-1.199 0-.534 2.702-.983 6.473-1.161l-40.577-29.588a20.627 20.627 0 0 1-1.399-.414c2.311 7.901 3.325 13.985 2.27 14.329-1.072.351-3.927-5.343-6.782-13.288-1.539 2.199-2.932 3.473-3.61 3.129-.617-.312-.5-1.898.175-4.095-7.549 2.163-13.274 3.082-13.608 2.059-.342-1.044 5.067-3.781 12.694-6.561-2.008-1.37-3.315-2.64-3.436-3.421L21.941 101.697c4.583 6.322 7.346 11.29 6.492 11.968-.905.718-5.566-3.597-11.085-10.089-.754 2.642-1.722 4.335-2.589 4.235-.869-.099-1.427-1.977-1.559-4.733-6.795 5.019-12.256 8.123-12.97 7.223-.711-.894 3.508-5.467 9.886-10.91-2.536-.746-4.148-1.688-4.051-2.535.1-.867 1.972-1.425 4.721-1.559-5.016-6.791-8.119-12.25-7.22-12.964.895-.709 5.456 3.497 10.887 9.859.755-2.65 1.724-4.349 2.593-4.249.563.064.993.883 1.263 2.195l25.418-70.322c-.967.511-1.714.686-2.031.37-.464-.465.086-1.828 1.293-3.509C36.657 16.458 32 15.736 32 14.874c0-.857 4.611-1.577 10.896-1.8-1.142-1.62-1.652-2.926-1.2-3.378.464-.463 1.824.084 3.501 1.287C45.416 4.653 46.139 0 46.999 0c.857 0 1.575 4.598 1.8 10.869 1.679-1.205 3.04-1.753 3.504-1.29.462.463-.082 1.819-1.28 3.492 6.326.22 10.976.943 10.976 1.803 0 .725-3.29 1.352-8.098 1.664l158.12 41.13a.596.596 0 0 1-.004-.406c.239-.61 1.705-.653 3.723-.222-2.332-5.888-3.533-10.442-2.744-10.787.785-.342 3.283 3.583 5.998 9.239 1.057-1.776 2.086-2.822 2.696-2.582.61.239.655 1.703.224 3.722 5.228-2.07 9.397-3.245 10.502-2.926l46.547-19.949c-4.769-2.389-8.061-4.558-7.758-5.225.307-.677 4.206.408 9.248 2.485-.322-1.692-.257-2.908.262-3.103.532-.199 1.409.72 2.301 2.27 2.441-4.916 4.679-8.33 5.359-8.021.675.306-.405 4.192-2.475 9.221 1.756-.349 3.027-.293 3.227.238.2.532-.719 1.409-2.269 2.301 4.916 2.442 8.329 4.679 8.021 5.359Z"/></svg>