<svg xmlns="http://www.w3.org/2000/svg" width="78" height="67"><defs><linearGradient id="a" x1="0%" x2="100%" y1="0%" y2="0%"><stop offset="0%" stop-color="#19243D"/><stop offset="28%" stop-color="#192F46"/><stop offset="50%" stop-color="#19394E"/><stop offset="100%" stop-color="#19243D"/></linearGradient></defs><path fill-rule="evenodd" fill="url(#a)" d="M47.654 34.608a55.864 55.864 0 0 1 2.067-.499l.036-.008a54.803 54.803 0 0 1 2.022-.407l.077-.014a57.649 57.649 0 0 1 1.971-.319l.13-.018a54.725 54.725 0 0 1 1.906-.234l.193-.019a54.751 54.751 0 0 1 1.829-.153l.267-.015a53.915 53.915 0 0 1 1.74-.078c.117-.003.233-.003.35-.005a49.843 49.843 0 0 1 1.639-.009c.148.002.294.008.441.011.512.012 1.022.026 1.529.053.18.009.358.025.538.036.472.03.943.062 1.41.105.215.021.428.048.643.071.428.046.856.091 1.279.148.255.035.506.078.759.117.38.058.761.113 1.136.18.302.053.598.118.896.178.323.064.649.124.968.195.37.083.734.178 1.099.27.243.061.49.115.73.18a42.19 42.19 0 0 1 1.791.527l2.08 7.132-.057-.007a10.708 10.708 0 0 1-.078-.009l-.091-.01-.158-.018-.117-.013a14.096 14.096 0 0 0-.232-.025l-.145-.016-.302-.031-.17-.017-.369-.036-.194-.019-.431-.04-.218-.02a78.643 78.643 0 0 0-.49-.042l-.239-.021-.545-.044-.259-.021-.597-.044-.277-.02-.645-.045-.293-.019-.691-.042-.307-.018-.732-.04-.319-.016c-.253-.013-.511-.024-.771-.036l-.329-.014a96.24 96.24 0 0 0-1.143-.042c-.277-.008-.557-.017-.84-.024l-.341-.008a119.23 119.23 0 0 0-.87-.017l-.343-.005a88.497 88.497 0 0 0-.899-.008l-.34-.001c-.307-.001-.615 0-.926.002l-.335.003-.95.012-.326.008c-.324.007-.648.015-.973.025l-.312.011c-.332.012-.664.025-.997.04l-.289.015c-.341.017-.682.035-1.023.057l-.259.017a73.3 73.3 0 0 0-1.052.076l-.213.018c-.365.03-.729.062-1.091.098l-.145.015c-.384.039-.767.08-1.147.126l-.033.004c-2.523.304-4.943.762-7.081 1.428l1.783 4.842a3.001 3.001 0 1 1-5.631 2.073l-1.725-4.686c-.484.225-.957.463-1.43.699-.215.108-.433.212-.645.322-.434.224-.859.456-1.283.69-.243.133-.486.265-.725.401a56.284 56.284 0 0 0-3.071 1.886c-.248.164-.491.33-.735.496-.361.248-.722.497-1.074.751-.243.176-.48.355-.719.534-.343.256-.687.512-1.021.775-.236.186-.464.378-.697.567-.324.265-.653.527-.968.798-.202.173-.393.352-.591.528a48.755 48.755 0 0 0-1.642 1.522c-.266.258-.534.514-.792.776-.233.238-.458.48-.685.721-.256.271-.511.542-.759.817-.215.24-.424.483-.633.726a41.902 41.902 0 0 0-3.198 4.191c-.15.224-.303.447-.447.672-.238.371-.464.746-.688 1.121-.114.19-.232.377-.342.568-.326.568-.639 1.14-.933 1.716l-2.686-7.344c.294-.576.607-1.148.933-1.715.11-.19.229-.378.342-.567.224-.375.45-.749.688-1.12.145-.225.297-.448.447-.671.221-.33.445-.659.677-.985a45.905 45.905 0 0 1 1.794-2.343c.238-.289.481-.575.728-.861.209-.242.417-.484.632-.724.248-.275.504-.546.76-.817.227-.241.451-.482.684-.719.259-.263.528-.52.795-.779.436-.423.881-.839 1.337-1.25.296-.266.588-.535.892-.795.313-.269.639-.529.962-.792.234-.191.464-.385.703-.573.332-.261.674-.515 1.015-.77.241-.18.479-.361.723-.537.352-.254.71-.501 1.071-.748a50.008 50.008 0 0 1 2.61-1.678c.394-.238.791-.473 1.194-.702.24-.138.485-.27.729-.404.422-.233.845-.464 1.277-.687.215-.111.435-.216.652-.324.471-.236.941-.472 1.422-.696l-3.246-8.814c-.617.172-1.234.327-1.851.476-.119.028-.239.06-.359.088-.574.134-1.147.255-1.719.369-.161.032-.322.065-.483.095a54.073 54.073 0 0 1-3.811.581c-.175.021-.35.037-.525.055-.545.057-1.09.11-1.633.149-.147.011-.292.016-.438.026a49.43 49.43 0 0 1-5.704.041l-.055-.002c-.443-.023-.88-.061-1.318-.097-.271-.022-.544-.04-.814-.066-.385-.039-.765-.087-1.147-.134-.319-.04-.638-.079-.955-.125a44.264 44.264 0 0 1-1.051-.168 42.685 42.685 0 0 1-3.062-.631c-.3-.074-.6-.147-.897-.226-.378-.101-.751-.21-1.123-.321-.268-.08-.537-.157-.802-.241a41.847 41.847 0 0 1-1.237-.424c-.213-.076-.43-.147-.641-.226a39.11 39.11 0 0 1-1.827-.736L.443 20.258c.599.261 1.209.505 1.827.738.211.079.428.15.642.226.409.146.82.291 1.238.424.264.085.534.163.802.242.372.111.745.22 1.123.322.297.079.597.153.897.226a41.434 41.434 0 0 0 3.064.633c.349.059.699.118 1.052.169.316.046.636.085.955.125.382.047.763.096 1.149.134.269.027.541.045.812.067.439.035.877.074 1.321.098l.056.002c1.873.097 3.782.082 5.712-.041.144-.009.287-.015.432-.025.544-.04 1.091-.092 1.639-.149.173-.018.346-.035.52-.055a51.751 51.751 0 0 0 2.157-.294 51.012 51.012 0 0 0 1.66-.288 56.367 56.367 0 0 0 2.203-.464c.119-.028.238-.059.357-.088a52.593 52.593 0 0 0 1.855-.476L30.6 18.21a3 3 0 0 1 5.63-2.073l1.364 3.702C48.478 15.035 61.394.597 61.394.597l3.103 6.953a41.625 41.625 0 0 1-1.966 2.969l-.094.135a44.46 44.46 0 0 1-2.21 2.779c-.052.06-.101.122-.153.182a46.396 46.396 0 0 1-2.473 2.623c-.059.058-.116.118-.176.176a48.479 48.479 0 0 1-2.751 2.477l-.168.142a49.892 49.892 0 0 1-3.039 2.325l-.137.098a52.29 52.29 0 0 1-3.422 2.208 53.058 53.058 0 0 1-3.614 1.956l-.043.022a55.477 55.477 0 0 1-3.885 1.727l3.129 8.497a57.192 57.192 0 0 1 4.159-1.258Z"/></svg>