<svg xmlns="http://www.w3.org/2000/svg" width="47" height="49"><defs><linearGradient id="a" x1="0%" x2="100%" y1="0%" y2="0%"><stop offset="0%" stop-color="#19243D"/><stop offset="28%" stop-color="#192F46"/><stop offset="50%" stop-color="#19394E"/><stop offset="100%" stop-color="#19243D"/></linearGradient></defs><path fill-rule="evenodd" fill="url(#a)" d="M43.617 23.446a2.763 2.763 0 0 1-2.812-2.688l-.268-10.451-21.885 22.898 6.292 6.014a2.733 2.733 0 1 1-3.779 3.953l-6.292-6.014L4.811 47.686a2.75 2.75 0 0 1-3.976-3.801l10.062-10.527-6.314-6.035a2.735 2.735 0 0 1 3.779-3.953l6.314 6.035L36.569 6.499l-10.808.212a2.77 2.77 0 0 1-2.819-2.694 2.73 2.73 0 0 1 2.679-2.803l16.29-.319c.344-.167.713-.288 1.121-.296a2.763 2.763 0 0 1 2.813 2.688l.004.153c.005.084.008.167.006.251l.434 16.959a2.724 2.724 0 0 1-2.672 2.796Z"/></svg>