<svg xmlns="http://www.w3.org/2000/svg" width="60" height="59"><defs><linearGradient id="a" x1="0%" x2="0%" y1="100%" y2="0%"><stop offset="0%" stop-color="#19243D"/><stop offset="28%" stop-color="#192F46"/><stop offset="50%" stop-color="#19394E"/><stop offset="100%" stop-color="#19243D"/></linearGradient></defs><path fill-rule="evenodd" fill="url(#a)" d="M52.199 6.072c-.552 0-1.064.022-1.555.056-.137.009-.265.023-.397.035-.371.033-.725.077-1.062.132-.106.017-.215.033-.319.052-.864.164-1.614.402-2.259.724-.045.022-.086.047-.13.07a5.82 5.82 0 0 0-.809.512l-.081.06c-.555.44-1.008.97-1.368 1.603l-.005.009a7.09 7.09 0 0 0-.479 1.04c.099.758.155 1.633.155 2.635 0 5.075-1.076 8.738-3.373 11.18C45.628 27.585 49 33.397 49 39.999 49 50.493 40.493 59 29.999 59 19.506 59 11 50.493 11 39.999c0-6.309 3.088-11.884 7.822-15.34C16.214 22.23 15 18.419 15 13c0-1.003.055-1.877.154-2.636a7.185 7.185 0 0 0-.475-1.04l-.005-.009a5.446 5.446 0 0 0-1.355-1.602c-.026-.021-.054-.04-.081-.06a5.64 5.64 0 0 0-.801-.512c-.043-.023-.085-.048-.129-.07-.638-.322-1.382-.56-2.238-.724-.102-.02-.21-.035-.316-.052a14.856 14.856 0 0 0-1.052-.133c-.13-.011-.258-.025-.393-.034a21.904 21.904 0 0 0-1.54-.056C-.499 6.072-3.853 0 6.769 0 17.389 0 22 5.61 22 16.231c0 .436-.014.84-.034 1.229l-.013.24c-.024.373-.053.73-.093 1.06.673 1.477 1.796 2.355 3.593 2.81a18.977 18.977 0 0 1 4.546-.57c1.34 0 2.645.142 3.907.405 1.485-.486 2.455-1.317 3.062-2.628a18.314 18.314 0 0 1-.109-1.313c-.02-.39-.034-.796-.034-1.233C36.825 5.61 41.478 0 52.199 0c10.72 0 7.335 6.072 0 6.072Zm-18.3 21.524c-1.002.246-2.266.404-3.9.404-.191 0-.36-.017-.547-.02-.236.005-.46.02-.702.02-1.226 0-2.247-.088-3.115-.23-5.029 1.795-8.636 6.584-8.636 12.229 0 7.18 5.821 13.001 13 13.001C37.179 53 43 47.179 43 39.999c0-5.821-3.827-10.746-9.101-12.403Z"/></svg>