<svg xmlns="http://www.w3.org/2000/svg" width="68" height="76"><defs><linearGradient id="a" x1="0%" x2="100%" y1="0%" y2="0%"><stop offset="0%" stop-color="#19243D"/><stop offset="28%" stop-color="#192F46"/><stop offset="50%" stop-color="#19394E"/><stop offset="100%" stop-color="#19243D"/></linearGradient></defs><path fill-rule="evenodd" fill="url(#a)" d="M43.443 57.655c-6.435 3.716-11.459 18.312-11.459 18.312l-4.166-6.581c.116-.924.278-1.828.473-2.716.125-.581.289-1.141.445-1.705.074-.261.137-.526.217-.783.223-.725.483-1.427.76-2.12.025-.061.047-.124.072-.185.307-.752.647-1.481 1.016-2.191a3.043 3.043 0 0 1-.377-.513L14.342 31.316a26.157 26.157 0 0 1-2.545-.111l-.1-.009a27.7 27.7 0 0 1-2.478-.349l-.185-.037a29.043 29.043 0 0 1-2.423-.575c-.064-.018-.128-.04-.192-.058a30.848 30.848 0 0 1-2.438-.816L.555 22.78s15.068 2.44 21.604-1.334C29.58 17.162 33.84 9.223 34.508.237l3.901 6.777a32.285 32.285 0 0 1-.269 2.33c-.023.156-.045.311-.071.465a30.735 30.735 0 0 1-.458 2.295l-.007.03a30.047 30.047 0 0 1-.665 2.303c-.018.052-.034.105-.051.157a28.22 28.22 0 0 1-.872 2.263l16.925 29.316c.303.524.425 1.102.394 1.664 1.723.198 3.456.57 5.179 1.105l.231.07c.803.256 1.603.547 2.399.873.122.05.243.104.365.156.8.339 1.596.702 2.383 1.11l4.115 7.106c-8.236-4.276-17.257-4.82-24.564-.602ZM32.468 22.712a23.312 23.312 0 0 1-2.865 2.963c-.064.056-.131.108-.196.163-.425.36-.864.704-1.318 1.034-.125.091-.249.184-.377.273-.533.372-1.079.73-1.65 1.06-.423.244-.85.472-1.282.687-.046.023-.093.041-.14.064-.389.19-.78.371-1.177.538-.01.004-.021.007-.031.012a23.14 23.14 0 0 1-2.671.929l13.808 23.918c.272-.285.554-.557.841-.827.456-.433.925-.853 1.418-1.247.166-.13.339-.252.509-.377a20.062 20.062 0 0 1 2.008-1.344c.55-.317 1.111-.598 1.679-.862.143-.066.288-.127.433-.19.467-.204.939-.392 1.417-.561.111-.04.222-.081.334-.118a21.936 21.936 0 0 1 3.811-.912L32.468 22.712Z"/></svg>