<svg xmlns="http://www.w3.org/2000/svg" width="67" height="63"><defs><linearGradient id="a" x1="0%" x2="0%" y1="100%" y2="0%"><stop offset="0%" stop-color="#19243D"/><stop offset="28%" stop-color="#192F46"/><stop offset="50%" stop-color="#19394E"/><stop offset="100%" stop-color="#19243D"/></linearGradient></defs><path fill-rule="evenodd" fill="url(#a)" d="M64.572 26.223c-2.642 2.472-2.87-3.579-2.87-3.579s.549-3.696.543-6.546c-.006-2.848-3.411-10.035-7.293-8.34a27.612 27.612 0 0 0-4.498 2.521l.283.028c-7.593 6.509-9.573 15.772-12.169 27.728-1.528 7.041-2.628 14.597-3.202 18.939-.023 1.045-.138 2.017-.374 2.952-.052.432-.081.688-.081.688s-.08.087-.212.218c-.491 1.165-1.183 1.473-1.886 1.37-1.127.502-2.383.392-2.881-2.083-.241-1.197-.28-2.44-.174-3.809-.32-4.404-.963-11.862-2.045-18.849-1.87-12.087-3.289-21.45-10.428-28.393l.283-.011a27.28 27.28 0 0 0-4.308-2.78c-3.744-1.919-7.537 5.056-7.71 7.9-.172 2.843.155 6.566.155 6.566s-.579 6.027-3.051 3.403C.661 22.032.608 15.72 1.202 12.67 2.527 5.87 9.584-.555 15.093 1.147 20.06 2.68 24.878 9.34 26.919 14.376c3.527 6.06 4.619 13.451 5.762 22.597.13 1.034.263 2.006.396 2.951.173-.857.347-1.738.52-2.669 1.691-9.062 3.226-16.374 7.131-22.216 2.35-4.906 7.593-11.272 12.682-12.511 5.645-1.373 12.367 5.457 13.3 12.323.418 3.08-.008 9.378-2.138 11.372Z"/></svg>