<svg xmlns="http://www.w3.org/2000/svg" width="64" height="52"><defs><linearGradient id="a" x1="0%" x2="0%" y1="100%" y2="0%"><stop offset="0%" stop-color="#19243D"/><stop offset="28%" stop-color="#192F46"/><stop offset="50%" stop-color="#19394E"/><stop offset="100%" stop-color="#19243D"/></linearGradient></defs><path fill-rule="evenodd" fill="url(#a)" d="M62.674 25.225 8.455 50.92a2 2 0 0 1-2.664-.951l-.857-1.807a2 2 0 0 1 .951-2.664l54.22-25.695a2.001 2.001 0 0 1 2.664.951l.856 1.807a2 2 0 0 1-.951 2.664Zm-4.71-9.94L39.89 23.85a1.998 1.998 0 0 1-2.636-.904c-1.094-.557-1.906-1.892-1.476-3.255a10.964 10.964 0 0 0-.551-8.017c-2.602-5.49-9.161-7.831-14.651-5.23-5.49 2.602-7.831 9.161-5.229 14.652a10.962 10.962 0 0 0 6.327 5.678c1.485.517 1.892 2.381 1.259 3.641a1.985 1.985 0 0 1-1.116 2L3.744 40.98a2 2 0 0 1-2.664-.951l-.856-1.808a1.999 1.999 0 0 1 .95-2.663l14.121-6.692a15.919 15.919 0 0 1-4.467-5.63c-3.784-7.984-.379-17.526 7.607-21.31 7.985-3.785 17.526-.378 21.31 7.607a15.908 15.908 0 0 1 1.534 7.019l14.115-6.689a2 2 0 0 1 2.664.951l.856 1.807a2 2 0 0 1-.95 2.664Z"/></svg>