<svg xmlns="http://www.w3.org/2000/svg" width="57" height="62"><defs><linearGradient id="a" x1="0%" x2="0%" y1="100%" y2="0%"><stop offset="0%" stop-color="#19243D"/><stop offset="28%" stop-color="#192F46"/><stop offset="50%" stop-color="#19394E"/><stop offset="100%" stop-color="#19243D"/></linearGradient></defs><path fill-rule="evenodd" fill="url(#a)" d="m54.672 53.688-4.81 2.45s2.542-13.42-1.96-24.505c-2.894-7.126-6.158-12.997-10.24-17.605.186 5.674-3.104 11.097-8.662 13.321-7.134 2.855-15.276-.639-18.186-7.803-2.909-7.163.515-15.285 7.65-18.14 5.099-2.04 10.703-.825 14.553 2.643 9.418 4.835 16.947 13.772 20.798 26.295 3.604 11.725 2.543 13.408.857 23.344ZM32.036 11.054c-1.87-4.605-7.105-6.851-11.691-5.015-4.586 1.835-6.788 7.056-4.918 11.662 1.871 4.605 7.105 6.85 11.692 5.015 4.586-1.835 6.787-7.056 4.917-11.662ZM19.099 47.765c-.172-5.624 3.102-10.997 8.622-13.206 7.094-2.839 15.186.621 18.073 7.73 2.886 7.107-.525 15.17-7.619 18.009-5.084 2.035-10.671.821-14.496-2.64-9.338-4.8-16.799-13.659-20.613-26.071C-.51 19.95.545 18.279 2.226 8.414L7.007 5.98S4.474 19.303 8.942 30.305c2.871 7.067 6.108 12.89 10.157 17.46Zm17.207 7.93c4.562-1.826 6.757-7.007 4.903-11.572-1.854-4.565-7.056-6.786-11.618-4.96-4.562 1.825-6.758 7.006-4.904 11.571 1.855 4.565 7.056 6.787 11.619 4.961Z"/></svg>