<svg xmlns="http://www.w3.org/2000/svg" width="77" height="54"><defs><linearGradient id="a" x1="0%" x2="100%" y1="0%" y2="0%"><stop offset="0%" stop-color="#19243D"/><stop offset="28%" stop-color="#192F46"/><stop offset="50%" stop-color="#19394E"/><stop offset="100%" stop-color="#19243D"/></linearGradient></defs><path fill-rule="evenodd" fill="url(#a)" d="m74.501 37.087-1.987.226a2 2 0 0 1-2.214-1.76l-1.126-9.868-11.938 3.02c-.308.305-.71.518-1.174.571l-1.971.225-.9.227a2 2 0 0 1-2.429-1.448l-.491-1.939a1.996 1.996 0 0 1 1.165-2.327l-.862-7.552-16.286 4.119a1.997 1.997 0 0 1-2.429-1.448l-.491-1.938a1.989 1.989 0 0 1 .382-1.734l-.979-8.581L14.484 11a2 2 0 0 1-2.429-1.449l-.491-1.939a2 2 0 0 1 1.448-2.429L32.402.278a2 2 0 0 1 2.429 1.448l.031.124c.817.175 1.47.845 1.57 1.72l1.14 9.992L52.205 9.86a2 2 0 0 1 2.43 1.448l.031.124c.816.175 1.47.845 1.57 1.72l1.066 9.347 13.807-3.492a1.99 1.99 0 0 1 1.459.194 1.995 1.995 0 0 1 2.107 1.762l1.586 13.91a2 2 0 0 1-1.76 2.214ZM23.855 17.523l.031.123a1.994 1.994 0 0 1 1.57 1.721l1.14 9.992 14.634-3.703a2 2 0 0 1 2.429 1.449l.032.124a1.992 1.992 0 0 1 1.569 1.72l1.066 9.347 13.807-3.493a1.986 1.986 0 0 1 1.459.195 1.995 1.995 0 0 1 2.107 1.762l1.587 13.909a2.001 2.001 0 0 1-1.761 2.215l-1.987.226a2 2 0 0 1-2.214-1.761l-1.125-9.868-11.939 3.021a1.98 1.98 0 0 1-1.173.57l-1.977.226-.894.227a2 2 0 0 1-2.43-1.449l-.491-1.939a1.995 1.995 0 0 1 1.165-2.326l-.861-7.553-16.287 4.12a2 2 0 0 1-2.43-1.448l-.49-1.939a1.99 1.99 0 0 1 .382-1.734l-.979-8.581-16.287 4.12a2 2 0 0 1-2.429-1.448l-.491-1.939a2.001 2.001 0 0 1 1.449-2.43l19.389-4.904a1.998 1.998 0 0 1 2.429 1.448Z"/></svg>