<svg id="Группа_4" data-name="Группа 4" xmlns="http://www.w3.org/2000/svg" width="226" height="226.06"><defs><style>.cls-3{fill-rule:evenodd;fill:#124}</style></defs><circle id="Эллипс_7" data-name="Эллипс 7" cx="113" cy="113.03" r="112.031" style="fill:none;stroke:#124;stroke-width:2px"/><path id="Эллипс_7_копия" data-name="Эллипс 7 копия" d="m816.622 5484 9.265 16.05-16.047 9.26v18.53h-18.529l-9.264 16.05-16.047-9.27-16.047 9.27-9.265-16.05h-18.529v-18.53l-16.047-9.26 9.265-16.05-9.265-16.05 16.047-9.26v-18.53h18.529l9.265-16.05 16.047 9.27 16.047-9.27 9.264 16.05h18.529v18.53l16.047 9.26Z" transform="translate(-653 -5370.97)" style="fill-rule:evenodd;fill:none;stroke:#124;stroke-width:2px"/><path id="Фигура_1" data-name="Фигура 1" class="cls-3" d="m737.978 5592.44-.966-.26 58.234-217.33.966.26Z" transform="translate(-653 -5370.97)"/><path id="Фигура_1-2" data-name="Фигура 1" class="cls-3" d="m658.523 5456.24.259-.97 217.333 58.23-.259.97Z" transform="translate(-653 -5370.97)"/><path id="Фигура_1-3" data-name="Фигура 1" class="cls-3" d="m658.782 5514.47-.259-.97 217.333-58.23.259.97Z" transform="translate(-653 -5370.97)"/><path id="Фигура_1-4" data-name="Фигура 1" class="cls-3" d="m688.123 5564.77-.707-.7 159.1-159.1.707.7Z" transform="translate(-653 -5370.97)"/><path id="Фигура_1-5" data-name="Фигура 1" class="cls-3" d="m847.222 5564.07-.707.7-159.1-159.1.707-.7Z" transform="translate(-653 -5370.97)"/><path id="Фигура_1-6" data-name="Фигура 1" class="cls-3" d="m796.919 5593.41-.966.26-58.234-217.34.966-.26Z" transform="translate(-653 -5370.97)"/><path id="Прямоугольник_2" data-name="Прямоугольник 2" class="cls-3" d="m819.938 5392.03-6.845 23.85s-2.441-2.36-3-1.39c-8.275 14.33-74.468 128.98-89.7 155.36-2 3.46 5.436 10.34 5.436 10.34l-21.669-12.51s9.647 3.04 11.6-.33c15.142-26.23 81.966-141.97 89.97-155.84.513-.89-2.771-1.78-2.771-1.78Z" transform="translate(-653 -5370.97)"/></svg>