<svg xmlns="http://www.w3.org/2000/svg" width="160" height="160"><path fill-rule="evenodd" fill="#131E34" d="M145.669 73.404c9.024 3.638 14.33 6.596 14.33 6.596s-5.309 2.959-14.338 6.598a65.528 65.528 0 0 1-5.486 20.532c5.992 7.659 9.107 12.869 9.107 12.869s-6.091-.092-15.746-1.459c-4.165 5.77-9.218 10.858-14.992 15.019 1.363 9.642 1.456 15.723 1.456 15.723s-5.21-3.115-12.867-9.106a65.568 65.568 0 0 1-20.539 5.495C82.956 154.694 79.999 160 79.999 160s-2.957-5.306-6.594-14.329a65.534 65.534 0 0 1-20.537-5.495C45.21 146.167 40 149.282 40 149.282s.092-6.083 1.456-15.728a66.402 66.402 0 0 1-15.022-15.009c-9.638 1.362-15.716 1.454-15.716 1.454s3.118-5.216 9.115-12.88a65.567 65.567 0 0 1-5.502-20.524C5.307 82.957 0 80 0 80s5.31-2.96 14.339-6.599a65.528 65.528 0 0 1 5.486-20.532C13.833 45.211 10.718 40 10.718 40s6.091.092 15.747 1.459c4.165-5.77 9.217-10.856 14.99-15.018C40.092 16.798 40 10.717 40 10.717s5.21 3.115 12.868 9.106a65.575 65.575 0 0 1 20.537-5.494c3.637-9.023 6.594-14.33 6.594-14.33s2.958 5.307 6.595 14.33a65.541 65.541 0 0 1 20.537 5.495C114.789 13.832 120 10.717 120 10.717s-.093 6.083-1.457 15.729a66.382 66.382 0 0 1 15.022 15.009C143.204 40.092 149.282 40 149.282 40s-3.118 5.216-9.116 12.88a65.542 65.542 0 0 1 5.503 20.524Zm-65.575-46.81c-29.547 0-53.5 23.953-53.5 53.5s23.953 53.5 53.5 53.5 53.5-23.953 53.5-53.5-23.953-53.5-53.5-53.5ZM80 120.406c-22.316 0-40.406-18.09-40.406-40.406S57.684 39.594 80 39.594 120.406 57.684 120.406 80 102.316 120.406 80 120.406Z"/></svg>